<svg xmlns="http://www.w3.org/2000/svg" width="28.5" height="34.488" viewBox="0 0 28.5 34.488">
  <g id="application" transform="translate(-94.447 321)">
    <g id="Group_581" data-name="Group 581" transform="translate(94.447 -321)">
      <path id="Path_11573" data-name="Path 11573" d="M72.442,29.56a.505.505,0,0,0,.505-.505V4.928a.505.505,0,0,0-.505-.505H70.77V2.683a.505.505,0,0,0-.505-.505H68.592V.505A.505.505,0,0,0,68.087,0H44.952a.505.505,0,0,0-.505.505V29.56a.505.505,0,0,0,.505.505h1.672v1.672a.505.505,0,0,0,.505.505H48.8v1.74a.505.505,0,0,0,.505.505H72.442a.505.505,0,0,0,.505-.505V28.551a.505.505,0,1,0-1.01,0v4.927H49.812V32.243H70.264a.505.505,0,0,0,.505-.505v-8.6a.505.505,0,1,0-1.01,0v8.093H47.635V30.065H68.087a.505.505,0,0,0,.505-.505V18.9a.505.505,0,1,0-1.01,0V29.055H45.457V1.01H67.582V19.546a.505.505,0,1,0,1.01,0V3.188h1.167V23.593a.505.505,0,1,0,1.01,0V5.433h1.167V29.055A.505.505,0,0,0,72.442,29.56Z" transform="translate(-44.447 0)" fill="#7e0736"/>
      <path id="Path_11574" data-name="Path 11574" d="M90.648,48.281v-9.39a.505.505,0,0,0-.505-.505h-6.8a.505.505,0,0,0-.505.505v9.39a.505.505,0,0,0,.505.505h6.8A.505.505,0,0,0,90.648,48.281Zm-1.01-.505H83.843V39.4h5.794v8.38Z" transform="translate(-80.247 -35.8)" fill="#7e0736"/>
      <path id="Path_11575" data-name="Path 11575" d="M229.935,38.891a.505.505,0,0,0-.505-.505h-8.71a.505.505,0,0,0-.505.505V41.2a.505.505,0,0,0,.505.505h8.71a.505.505,0,0,0,.505-.505Zm-1.01,1.808h-7.7V39.4h7.7Z" transform="translate(-208.375 -35.8)" fill="#7e0736"/>
      <path id="Path_11576" data-name="Path 11576" d="M229.43,109.1h-8.71a.505.505,0,1,0,0,1.01h8.71a.505.505,0,1,0,0-1.01Z" transform="translate(-208.375 -101.749)" fill="#7e0736"/>
      <path id="Path_11577" data-name="Path 11577" d="M229.43,141.423h-8.71a.505.505,0,0,0,0,1.01h8.71a.505.505,0,1,0,0-1.01Z" transform="translate(-208.375 -131.897)" fill="#7e0736"/>
      <path id="Path_11578" data-name="Path 11578" d="M229.43,177.789h-8.71a.505.505,0,1,0,0,1.01h8.71a.505.505,0,1,0,0-1.01Z" transform="translate(-208.375 -165.813)" fill="#7e0736"/>
      <path id="Path_11579" data-name="Path 11579" d="M172.9,214.154H160.11a.505.505,0,0,0,0,1.01H172.9a.505.505,0,0,0,0-1.01Z" transform="translate(-151.848 -199.729)" fill="#7e0736"/>
      <path id="Path_11580" data-name="Path 11580" d="M86.06,214.154H83.338a.505.505,0,1,0,0,1.01H86.06a.505.505,0,0,0,0-1.01Z" transform="translate(-80.247 -199.729)" fill="#7e0736"/>
      <path id="Path_11581" data-name="Path 11581" d="M172.9,250.521H160.11a.505.505,0,0,0,0,1.01H172.9a.505.505,0,0,0,0-1.01Z" transform="translate(-151.848 -233.646)" fill="#7e0736"/>
      <path id="Path_11582" data-name="Path 11582" d="M86.06,250.521H83.338a.505.505,0,1,0,0,1.01H86.06a.505.505,0,0,0,0-1.01Z" transform="translate(-80.247 -233.646)" fill="#7e0736"/>
      <path id="Path_11583" data-name="Path 11583" d="M172.9,286.886H160.11a.505.505,0,0,0,0,1.01H172.9a.505.505,0,0,0,0-1.01Z" transform="translate(-151.848 -267.562)" fill="#7e0736"/>
      <path id="Path_11584" data-name="Path 11584" d="M86.06,286.886H83.338a.505.505,0,0,0,0,1.01H86.06a.505.505,0,0,0,0-1.01Z" transform="translate(-80.247 -267.562)" fill="#7e0736"/>
      <path id="Path_11585" data-name="Path 11585" d="M172.9,323.252H160.11a.505.505,0,0,0,0,1.01H172.9a.505.505,0,0,0,0-1.01Z" transform="translate(-151.848 -301.478)" fill="#7e0736"/>
      <path id="Path_11586" data-name="Path 11586" d="M86.06,323.252H83.338a.505.505,0,0,0,0,1.01H86.06a.505.505,0,0,0,0-1.01Z" transform="translate(-80.247 -301.478)" fill="#7e0736"/>
      <path id="Path_11587" data-name="Path 11587" d="M172.9,359.618H160.11a.505.505,0,0,0,0,1.01H172.9a.505.505,0,0,0,0-1.01Z" transform="translate(-151.848 -335.394)" fill="#7e0736"/>
      <path id="Path_11588" data-name="Path 11588" d="M86.06,359.618H83.338a.505.505,0,1,0,0,1.01H86.06a.505.505,0,0,0,0-1.01Z" transform="translate(-80.247 -335.394)" fill="#7e0736"/>
    </g>
  </g>
</svg>
