<svg xmlns="http://www.w3.org/2000/svg" width="74.481" height="80" viewBox="0 0 74.481 80">
  <path id="Intersection_1" data-name="Intersection 1" d="M2173.653,90.267a10.1,10.1,0,0,1-1.234-.075,6.947,6.947,0,0,1-.28-.721l-8.486-26.117V48.46l12.863,39.588a2.3,2.3,0,0,0,2.9,1.478l52.526-17.067a2.3,2.3,0,0,0,1.478-2.9l-19.266-59.292h4.839l18.8,57.87a6.912,6.912,0,0,1-4.432,8.7l-41.335,13.431Zm5.818-8.019-2.845-8.753a2.3,2.3,0,0,1,1.478-2.9l8.753-2.844a2.3,2.3,0,0,1,2.9,1.477l2.845,8.754a2.3,2.3,0,0,1-1.478,2.9l-8.753,2.844a2.3,2.3,0,0,1-2.9-1.478Zm2.244-7.987,1.422,4.378,4.378-1.422-1.422-4.378Zm15.265,2.3-2.845-8.753a2.3,2.3,0,0,1,1.478-2.9l8.753-2.844a2.3,2.3,0,0,1,2.9,1.477l2.845,8.754a2.3,2.3,0,0,1-1.478,2.9l-8.754,2.844a2.3,2.3,0,0,1-2.9-1.478Zm2.244-7.988,1.422,4.378,4.378-1.422L2203.6,67.15Zm15.265,2.3-8.534-26.263a2.3,2.3,0,0,1,1.478-2.9l8.753-2.844a2.3,2.3,0,0,1,2.9,1.477l8.534,26.264a2.3,2.3,0,0,1-1.478,2.9l-8.754,2.844a2.3,2.3,0,0,1-2.9-1.477Zm-3.445-25.5,7.111,21.885,4.377-1.422-7.111-21.885ZM2173.783,64.74l-2.845-8.753a2.3,2.3,0,0,1,1.478-2.9l8.754-2.844a2.3,2.3,0,0,1,2.9,1.477l2.845,8.754a2.3,2.3,0,0,1-1.478,2.9l-8.753,2.844a2.3,2.3,0,0,1-2.9-1.478Zm2.244-7.987,1.422,4.377,4.378-1.422L2180.4,55.33Zm15.264,2.3-2.844-8.754a2.3,2.3,0,0,1,1.478-2.9l8.753-2.844a2.3,2.3,0,0,1,2.9,1.477l2.845,8.754a2.3,2.3,0,0,1-1.478,2.9l-8.753,2.844a2.3,2.3,0,0,1-2.9-1.477Zm2.245-7.987,1.422,4.377,4.377-1.422-1.422-4.378Zm-25.441-3.831-4.441-13.668V26.58q.066-.026.134-.048l43.771-14.222a2.3,2.3,0,0,1,2.9,1.478l5.783,17.8a2.3,2.3,0,0,1-1.478,2.9L2170.994,48.71a2.3,2.3,0,0,1-2.9-1.477Zm-.7-17.034,4.362,13.423,39.394-12.8L2206.793,17.4Zm-3.745-9.931a9.974,9.974,0,0,1,.662-3.585l19.742-6.414h14.895l-35.3,11.469Z" transform="translate(-2163.653 -10.267)" fill="#fff"/>
</svg>
