<svg id="Calendar" xmlns="http://www.w3.org/2000/svg" width="14.89" height="16.417" viewBox="0 0 14.89 16.417">
  <path id="Combined_Shape" data-name="Combined Shape" d="M4.215,16.417A3.9,3.9,0,0,1,0,12.234V5.324a3.816,3.816,0,0,1,3.791-4.1V.572a.573.573,0,0,1,1.146,0v.634H9.96V.572a.572.572,0,1,1,1.145,0V1.22a4.11,4.11,0,0,1,2.7,1.115A4.107,4.107,0,0,1,14.89,5.327v6.966a3.87,3.87,0,0,1-4.216,4.125Zm-3.07-4.182a2.754,2.754,0,0,0,3.07,3.037h6.458a2.73,2.73,0,0,0,3.07-2.98V6.8H1.146Zm12.6-6.581V5.324a2.949,2.949,0,0,0-.754-2.18A2.952,2.952,0,0,0,11.1,2.369v.716a.572.572,0,1,1-1.145,0V2.352H4.937v.734a.573.573,0,0,1-1.146,0V2.369A2.662,2.662,0,0,0,1.146,5.324v.329Zm-3.477,6.522a.57.57,0,0,1,.569-.572h.007a.572.572,0,1,1-.576.572Zm-3.388,0a.57.57,0,0,1,.569-.572h.007a.572.572,0,1,1-.576.572Zm-3.4,0a.57.57,0,0,1,.57-.572H4.06a.572.572,0,1,1-.577.572Zm6.784-2.967a.57.57,0,0,1,.569-.573h.007a.573.573,0,1,1-.576.573Zm-3.388,0a.57.57,0,0,1,.569-.573h.007a.573.573,0,1,1-.576.573Zm-3.4,0a.571.571,0,0,1,.57-.573H4.06a.573.573,0,1,1-.577.573Z" transform="translate(0 0)" fill="#b3b3b3"/>
</svg>
