<svg id="book" xmlns="http://www.w3.org/2000/svg" width="36.666" height="36.666" viewBox="0 0 36.666 36.666">
  <path id="Path_11754" data-name="Path 11754" d="M18.333,0H10.389a.611.611,0,0,0-.611.611V4.889H.611A.611.611,0,0,0,0,5.5V36.055a.611.611,0,0,0,.611.611H18.333a.611.611,0,0,0,.611-.611V.611A.611.611,0,0,0,18.333,0Zm-.611,31.777H11V30.555h6.722ZM1.222,9.166H9.778V27.5H1.222Zm16.5-2.444H11V4.889h6.722Zm-16.5,22H9.778v1.833H1.222ZM11,29.333V7.944h6.722V29.333ZM17.722,1.222V3.667H11V1.222ZM9.778,6.111V7.944H1.222V6.111ZM1.222,31.777H9.778v3.667H1.222ZM11,35.444V33h6.722v2.444Zm0,0" fill="#7e0736"/>
  <path id="Path_11755" data-name="Path 11755" d="M265.7,92.569l-7.333-28.11a.61.61,0,0,0-.749-.436l-9.166,2.444a.611.611,0,0,0-.434.744l7.333,28.11a.61.61,0,0,0,.749.435l9.166-2.444A.611.611,0,0,0,265.7,92.569ZM250.327,71.223l7.986-2.129.287,1.1-7.985,2.132Zm8.582.157,3.544,13.6L254.47,87.1l-3.544-13.6Zm3.855,14.779.626,2.4L255.4,90.685l-.623-2.4Zm-5.425-20.8L258,67.912l-7.986,2.128-.665-2.55Zm-.961,29.058-.665-2.551,7.986-2.13.665,2.55Zm0,0" transform="translate(-229.054 -59.112)" fill="#7e0736"/>
  <path id="Path_11756" data-name="Path 11756" d="M37.5,144H32.611a.611.611,0,0,0-.611.611V149.5a.611.611,0,0,0,.611.611H37.5a.611.611,0,0,0,.611-.611v-4.889A.611.611,0,0,0,37.5,144Zm-.611,4.889H33.222v-3.667h3.667Zm0,0" transform="translate(-29.556 -133)" fill="#7e0736"/>
</svg>
