<svg xmlns="http://www.w3.org/2000/svg" width="15.998" height="15.998" viewBox="0 0 15.998 15.998">
  <path id="solid_thumbs-down" data-name="solid thumbs-down" d="M0,1.75v7.5A.75.75,0,0,0,.75,10h2.5A.75.75,0,0,0,4,9.249V1.75A.75.75,0,0,0,3.25,1H.75A.75.75,0,0,0,0,1.75ZM1.25,8a.75.75,0,1,1,.75.75A.75.75,0,0,1,1.25,8Zm8.5,8c-.631,0-.921-1.228-1.06-1.806A3.785,3.785,0,0,0,7.9,12.352c-1.015-1.016-1.547-2.311-2.785-3.534A.374.374,0,0,1,5,8.551V1.872A.375.375,0,0,1,5.368,1.5,4.917,4.917,0,0,0,7.013.991,8.97,8.97,0,0,1,10.749,0h.089c1.337,0,2.917.013,3.555.929a1.659,1.659,0,0,1,.192,1.395A2.471,2.471,0,0,1,15.1,4.66a2.61,2.61,0,0,1,.291,2.483l0,0A2.262,2.262,0,0,1,16,8.684,1.867,1.867,0,0,1,14.138,10.5H10.959c.228.886,1.04,1.629,1.04,2.954C12,15.748,10.5,16,9.749,16Z" fill="#b3b3b3"/>
</svg>
