<svg xmlns="http://www.w3.org/2000/svg" width="18.017" height="20" viewBox="0 0 18.017 20">
  <g id="Edit" transform="translate(-12 114)">
    <path id="Combined_Shape" data-name="Combined Shape" d="M1.693,20a.786.786,0,0,1-.766-.609L.067,15.725A2.517,2.517,0,0,1,.55,13.574L10.428,1.133l.007-.009,0-.005A3.137,3.137,0,0,1,14.8.69c.045.036,1.38,1.08,1.788,1.4l.019.014a2.958,2.958,0,0,1,1.325,1.874A3.049,3.049,0,0,1,17.549,6.3c-.019.03-.037.058-1.958,2.481a.8.8,0,0,1-.052.077.787.787,0,0,1-.082.092C14.024,10.761,11.6,13.815,7.5,18.986a2.561,2.561,0,0,1-1.978.966L1.7,20Zm.086-5.436a.931.931,0,0,0-.18.8l.714,3.046,3.187-.04A.985.985,0,0,0,6.268,18c2.027-2.553,5.285-6.659,7.527-9.485L9.328,5.056Zm13-7.292c.86-1.084,1.427-1.8,1.48-1.869a1.438,1.438,0,0,0,.148-1.06,1.482,1.482,0,0,0-.683-.937c-.063-.043-1.326-1.03-1.866-1.452l-.03-.024a1.576,1.576,0,0,0-.988-.35,1.542,1.542,0,0,0-1.186.549L10.31,3.819Z" transform="translate(12 -114)" fill="#b3b3b3"/>
  </g>
</svg>
