<svg xmlns="http://www.w3.org/2000/svg" width="36.994" height="36.994" viewBox="0 0 36.994 36.994">
  <g id="event" transform="translate(-16 -16)">
    <path id="Path_11603" data-name="Path 11603" d="M49.911,18.466h-3.7V17.85a1.85,1.85,0,1,0-3.7,0v.617H36.347V17.85a1.85,1.85,0,1,0-3.7,0v.617H26.482V17.85a1.85,1.85,0,1,0-3.7,0v.617h-3.7A3.086,3.086,0,0,0,16,21.549V49.911a3.086,3.086,0,0,0,3.083,3.083H49.911a3.086,3.086,0,0,0,3.083-3.083V21.549A3.086,3.086,0,0,0,49.911,18.466Zm-6.166-.617a.617.617,0,1,1,1.233,0v3.7a.617.617,0,0,1-1.233,0Zm-9.865,0a.617.617,0,0,1,1.233,0v3.7a.617.617,0,0,1-1.233,0Zm-9.865,0a.617.617,0,1,1,1.233,0v3.7a.617.617,0,1,1-1.233,0ZM19.083,19.7h3.7v1.85a1.85,1.85,0,0,0,3.7,0V19.7h6.166v1.85a1.85,1.85,0,0,0,3.7,0V19.7h6.166v1.85a1.85,1.85,0,1,0,3.7,0V19.7h3.7a1.852,1.852,0,0,1,1.85,1.85v4.316H17.233V21.549A1.852,1.852,0,0,1,19.083,19.7ZM49.911,51.761H19.083a1.852,1.852,0,0,1-1.85-1.85V27.1H51.761V49.911A1.852,1.852,0,0,1,49.911,51.761Z" fill="#7e0736"/>
    <path id="Path_11604" data-name="Path 11604" d="M403.083,216h-2.466a.617.617,0,0,0-.617.617v2.466a.617.617,0,0,0,.617.617h2.466a.617.617,0,0,0,.617-.617v-2.466A.617.617,0,0,0,403.083,216Zm-.617,2.466h-1.233v-1.233h1.233Z" transform="translate(-354.405 -184.586)" fill="#7e0736"/>
    <path id="Path_11605" data-name="Path 11605" d="M243.083,376h-2.466a.617.617,0,0,0-.617.617v2.466a.617.617,0,0,0,.617.617h2.466a.617.617,0,0,0,.617-.617v-2.466A.617.617,0,0,0,243.083,376Zm-.617,2.466h-1.233v-1.233h1.233Z" transform="translate(-206.736 -332.255)" fill="#7e0736"/>
    <path id="Path_11606" data-name="Path 11606" d="M163.083,216h-2.466a.617.617,0,0,0-.617.617v2.466a.617.617,0,0,0,.617.617h2.466a.617.617,0,0,0,.617-.617v-2.466A.617.617,0,0,0,163.083,216Zm-.617,2.466h-1.233v-1.233h1.233Z" transform="translate(-132.902 -184.586)" fill="#7e0736"/>
    <path id="Path_11607" data-name="Path 11607" d="M83.083,296H80.617a.617.617,0,0,0-.617.617v2.466a.617.617,0,0,0,.617.617h2.466a.617.617,0,0,0,.617-.617v-2.466A.617.617,0,0,0,83.083,296Zm-.617,2.466H81.233v-1.233h1.233Z" transform="translate(-59.068 -258.42)" fill="#7e0736"/>
    <path id="Path_11608" data-name="Path 11608" d="M163.083,296h-2.466a.617.617,0,0,0-.617.617v2.466a.617.617,0,0,0,.617.617h2.466a.617.617,0,0,0,.617-.617v-2.466A.617.617,0,0,0,163.083,296Zm-.617,2.466h-1.233v-1.233h1.233Z" transform="translate(-132.902 -258.42)" fill="#7e0736"/>
    <path id="Path_11609" data-name="Path 11609" d="M83.083,376H80.617a.617.617,0,0,0-.617.617v2.466a.617.617,0,0,0,.617.617h2.466a.617.617,0,0,0,.617-.617v-2.466A.617.617,0,0,0,83.083,376Zm-.617,2.466H81.233v-1.233h1.233Z" transform="translate(-59.068 -332.255)" fill="#7e0736"/>
    <path id="Path_11610" data-name="Path 11610" d="M163.083,376h-2.466a.617.617,0,0,0-.617.617v2.466a.617.617,0,0,0,.617.617h2.466a.617.617,0,0,0,.617-.617v-2.466A.617.617,0,0,0,163.083,376Zm-.617,2.466h-1.233v-1.233h1.233Z" transform="translate(-132.902 -332.255)" fill="#7e0736"/>
    <path id="Path_11611" data-name="Path 11611" d="M242.578,203.774,239.5,203.3l-1.385-2.95a.617.617,0,0,0-1.116,0l-1.384,2.95-3.083.471a.617.617,0,0,0-.348,1.04l2.249,2.3-.532,3.262a.617.617,0,0,0,.906.638l2.75-1.52,2.75,1.52a.617.617,0,0,0,.907-.639l-.532-3.262,2.249-2.3a.617.617,0,0,0-.348-1.04Zm-3,2.706a.617.617,0,0,0-.167.53l.378,2.316-1.937-1.071a.617.617,0,0,0-.6,0l-1.937,1.071.378-2.316a.617.617,0,0,0-.167-.53l-1.628-1.669,2.222-.339a.617.617,0,0,0,.465-.348l.966-2.059.966,2.058a.617.617,0,0,0,.465.348l2.222.339Z" transform="translate(-199.356 -169.818)" fill="#7e0736"/>
    <path id="Path_11612" data-name="Path 11612" d="M403.083,296h-2.466a.617.617,0,0,0-.617.617v2.466a.617.617,0,0,0,.617.617h2.466a.617.617,0,0,0,.617-.617v-2.466A.617.617,0,0,0,403.083,296Zm-.617,2.466h-1.233v-1.233h1.233Z" transform="translate(-354.405 -258.42)" fill="#7e0736"/>
    <path id="Path_11613" data-name="Path 11613" d="M403.083,376h-2.466a.617.617,0,0,0-.617.617v2.466a.617.617,0,0,0,.617.617h2.466a.617.617,0,0,0,.617-.617v-2.466A.617.617,0,0,0,403.083,376Zm-.617,2.466h-1.233v-1.233h1.233Z" transform="translate(-354.405 -332.255)" fill="#7e0736"/>
    <path id="Path_11614" data-name="Path 11614" d="M323.083,376h-2.466a.617.617,0,0,0-.617.617v2.466a.617.617,0,0,0,.617.617h2.466a.617.617,0,0,0,.617-.617v-2.466A.617.617,0,0,0,323.083,376Zm-.617,2.466h-1.233v-1.233h1.233Z" transform="translate(-280.571 -332.255)" fill="#7e0736"/>
  </g>
</svg>
