<svg xmlns="http://www.w3.org/2000/svg" width="25.83" height="34.488" viewBox="0 0 25.83 34.488">
  <g id="template" transform="translate(-64.262 0)">
    <g id="Group_582" data-name="Group 582" transform="translate(64.262 0)">
      <path id="Path_11589" data-name="Path 11589" d="M88.845,34.488H65.509a1.249,1.249,0,0,1-1.247-1.247V23.828a.506.506,0,1,1,1.013,0v9.412a.235.235,0,0,0,.234.234H88.845a.235.235,0,0,0,.234-.234V1.247a.235.235,0,0,0-.234-.234H65.509a.235.235,0,0,0-.234.234V24.038a.506.506,0,1,1-1.013,0V1.247A1.249,1.249,0,0,1,65.509,0H88.845a1.249,1.249,0,0,1,1.247,1.247V33.241a1.249,1.249,0,0,1-1.247,1.247Z" transform="translate(-64.262 0)" fill="#7e0736"/>
    </g>
    <g id="Group_584" data-name="Group 584" transform="translate(67.72 2.494)">
      <g id="Group_583" data-name="Group 583" transform="translate(0)">
        <path id="Path_11590" data-name="Path 11590" d="M115.93,41.856a.506.506,0,0,0,.654-.293l.236-.621h1.628l.234.619a.507.507,0,0,0,.948-.358l-1.435-3.8-.005-.014a.592.592,0,0,0-.549-.368h0a.592.592,0,0,0-.549.369l0,.011-1.448,3.8A.507.507,0,0,0,115.93,41.856Zm1.708-3.061.428,1.134h-.86Z" transform="translate(-115.604 -37.019)" fill="#7e0736"/>
        <path id="Path_11591" data-name="Path 11591" d="M182.77,62.8a1.529,1.529,0,0,0,.592-.119.506.506,0,0,0,.946-.251V60.1a.506.506,0,0,0-.946-.251,1.538,1.538,0,1,0-.592,2.957Zm0-2.062a.525.525,0,1,1-.525.525A.525.525,0,0,1,182.77,60.742Z" transform="translate(-176.811 -58.072)" fill="#7e0736"/>
        <path id="Path_11592" data-name="Path 11592" d="M245.463,95.3h9.188a.506.506,0,0,0,0-1.013h-9.188a.506.506,0,1,0,0,1.013Z" transform="translate(-236.244 -90.426)" fill="#7e0736"/>
        <path id="Path_11593" data-name="Path 11593" d="M134.014,129.633h-17.9a.506.506,0,0,0,0,1.013h17.9a.506.506,0,1,0,0-1.013Z" transform="translate(-115.607 -123.395)" fill="#7e0736"/>
        <path id="Path_11594" data-name="Path 11594" d="M133.807,166.26H130.87a.506.506,0,0,0,0,1.013h2.636v3.1H116.619v-3.1h11.9a.506.506,0,1,0,0-1.013h-12.2a.714.714,0,0,0-.713.713v3.7a.714.714,0,0,0,.713.713h17.488a.714.714,0,0,0,.713-.713v-3.7A.714.714,0,0,0,133.807,166.26Z" transform="translate(-115.606 -157.554)" fill="#7e0736"/>
        <path id="Path_11595" data-name="Path 11595" d="M121.358,261.963h-5.039a.714.714,0,0,0-.713.713V275.6a.714.714,0,0,0,.713.713h5.039a.714.714,0,0,0,.713-.713V262.676A.714.714,0,0,0,121.358,261.963Zm-.3,13.336h-4.439V262.976h4.439Z" transform="translate(-115.606 -246.811)" fill="#7e0736"/>
        <path id="Path_11596" data-name="Path 11596" d="M296.1,261.963h-6.194a.506.506,0,0,0,0,1.013H296.1a.506.506,0,0,0,0-1.013Z" transform="translate(-277.695 -246.811)" fill="#7e0736"/>
        <path id="Path_11597" data-name="Path 11597" d="M244.834,294.959h-9.9a.506.506,0,1,0,0,1.013h9.9a.506.506,0,1,0,0-1.013Z" transform="translate(-226.427 -277.584)" fill="#7e0736"/>
        <path id="Path_11598" data-name="Path 11598" d="M244.834,327.955h-9.9a.506.506,0,1,0,0,1.013h9.9a.506.506,0,1,0,0-1.013Z" transform="translate(-226.427 -308.358)" fill="#7e0736"/>
        <path id="Path_11599" data-name="Path 11599" d="M244.834,360.952h-9.9a.506.506,0,1,0,0,1.013h9.9a.506.506,0,1,0,0-1.013Z" transform="translate(-226.427 -339.132)" fill="#7e0736"/>
        <path id="Path_11600" data-name="Path 11600" d="M244.834,393.948h-9.9a.506.506,0,1,0,0,1.013h9.9a.506.506,0,1,0,0-1.013Z" transform="translate(-226.427 -369.906)" fill="#7e0736"/>
        <path id="Path_11601" data-name="Path 11601" d="M244.834,426.945h-9.9a.506.506,0,1,0,0,1.013h9.9a.506.506,0,1,0,0-1.013Z" transform="translate(-226.427 -400.68)" fill="#7e0736"/>
        <path id="Path_11602" data-name="Path 11602" d="M242.107,459.941h-7.169a.506.506,0,1,0,0,1.013h7.169a.506.506,0,1,0,0-1.013Z" transform="translate(-226.427 -431.453)" fill="#7e0736"/>
      </g>
    </g>
  </g>
</svg>
