<svg xmlns="http://www.w3.org/2000/svg" width="19.5" height="13.055" viewBox="0 0 19.5 13.055">
  <g id="mail" transform="translate(0.25 -85.083)">
    <g id="Group_778" data-name="Group 778" transform="translate(0 85.333)">
      <path id="Path_11774" data-name="Path 11774" d="M18.025,85.333H.974A.973.973,0,0,0,0,86.3V96.922a.973.973,0,0,0,.974.966H18.025A.973.973,0,0,0,19,96.922V86.3A.973.973,0,0,0,18.025,85.333Zm-.366.724-7.6,5.65a1.026,1.026,0,0,1-1.121,0l-7.6-5.65ZM13.6,92.08l4.141,5.07.014.014H1.245l.014-.014L5.4,92.08a.36.36,0,0,0-.054-.509.367.367,0,0,0-.514.054l-4.1,5.021V86.51L8.5,92.286a1.757,1.757,0,0,0,2,0l7.77-5.776V96.644l-4.1-5.021a.367.367,0,0,0-.514-.054A.36.36,0,0,0,13.6,92.08Z" transform="translate(0 -85.333)" fill="#fff" stroke="#fff" stroke-width="0.5"/>
    </g>
  </g>
</svg>
