<svg xmlns="http://www.w3.org/2000/svg" width="15.998" height="15.998" viewBox="0 0 15.998 15.998">
  <path id="solid_thumbs-up" data-name="solid thumbs-up" d="M3.25,7H.75a.75.75,0,0,0-.75.75v7.5A.75.75,0,0,0,.75,16h2.5a.75.75,0,0,0,.75-.75v-7.5A.75.75,0,0,0,3.25,7ZM2,14.749A.75.75,0,1,1,2.75,14,.75.75,0,0,1,2,14.749Zm10-12.2c0,1.325-.811,2.069-1.04,2.954h3.179A1.867,1.867,0,0,1,16,7.315a2.262,2.262,0,0,1-.607,1.537l0,0a2.61,2.61,0,0,1-.291,2.483,2.471,2.471,0,0,1-.512,2.336,1.659,1.659,0,0,1-.192,1.395c-.638.916-2.218.929-3.555.929h-.089a8.97,8.97,0,0,1-3.736-.991A4.918,4.918,0,0,0,5.368,14.5.375.375,0,0,1,5,14.127V7.447a.375.375,0,0,1,.111-.266C6.349,5.958,6.881,4.663,7.9,3.646a3.784,3.784,0,0,0,.793-1.841C8.828,1.228,9.118,0,9.749,0,10.5,0,12,.25,12,2.545Z" fill="#b3b3b3"/>
</svg>
