<svg xmlns="http://www.w3.org/2000/svg" width="38.967" height="36.873" viewBox="0 0 38.967 36.873">
  <g id="promotion" transform="translate(0 0)">
    <path id="Path_11748" data-name="Path 11748" d="M123.105,291a.761.761,0,1,0-1.04-.279A.761.761,0,0,0,123.105,291Zm0,0" transform="translate(-112.681 -267.536)" fill="#7e0736"/>
    <path id="Path_11749" data-name="Path 11749" d="M7.305,49.366,11.138,56a3.044,3.044,0,1,0,5.273-3.044l-2.283-3.955L16.1,47.864a.761.761,0,0,0,.279-1.04l-.99-1.714,14.578-2.859a2.283,2.283,0,0,0,1.851-3.421l-2.529-4.381L30.909,32a.761.761,0,0,0,.024-.8l-1.522-2.636a.763.763,0,0,0-.7-.379l-2.928.176L22.97,23.5a2.263,2.263,0,0,0-1.949-1.141h-.029a2.263,2.263,0,0,0-1.922,1.053L9.127,36.074,2.664,39.805a5.328,5.328,0,0,0,4.641,9.561Zm7.788,4.356a1.522,1.522,0,0,1-2.637,1.522L8.651,48.652l2.636-1.522,3.806,6.592Zm-1.726-6.035-.761-1.318,1.318-.761.761,1.318ZM28.328,29.733l1.052,1.822-.938,1.42-1.813-3.14Zm-7.985-5.49a.761.761,0,0,1,1.309.015L30.5,39.591a.761.761,0,0,1-.64,1.141,2.8,2.8,0,0,0-.417.071L20.082,24.584c.2-.253.222-.277.261-.341Zm-1.274,1.631,8.8,15.238-13.278,2.6-4.037-6.993ZM2.032,46.322a3.8,3.8,0,0,1,1.393-5.2L9.357,37.7l3.805,6.591L7.23,47.715a3.81,3.81,0,0,1-5.2-1.393Zm0,0" transform="translate(0 -20.654)" fill="#7e0736"/>
    <path id="Path_11750" data-name="Path 11750" d="M47.5,309.953a.761.761,0,0,0-1.04-.279l-1.318.761a.762.762,0,0,1-1.04-.279.761.761,0,0,0-1.318.761,2.286,2.286,0,0,0,3.119.836l1.318-.761a.761.761,0,0,0,.279-1.04Zm0,0" transform="translate(-39.433 -286.012)" fill="#7e0736"/>
    <path id="Path_11751" data-name="Path 11751" d="M440.907,42.577l-4.241,2.36a.761.761,0,1,0,.74,1.33l4.241-2.36a.761.761,0,0,0-.74-1.33Zm0,0" transform="translate(-403.071 -39.248)" fill="#7e0736"/>
    <path id="Path_11752" data-name="Path 11752" d="M443.962,137.435l-2.941-.788a.761.761,0,1,0-.394,1.47l2.941.788a.761.761,0,1,0,.394-1.47Zm0,0" transform="translate(-406.571 -126.223)" fill="#7e0736"/>
    <path id="Path_11753" data-name="Path 11753" d="M384.307.565l-.789,2.941a.761.761,0,1,0,1.47.394l.788-2.941a.761.761,0,1,0-1.47-.394Zm0,0" transform="translate(-354.306 0)" fill="#7e0736"/>
  </g>
</svg>
