<svg xmlns="http://www.w3.org/2000/svg" width="26" height="26" viewBox="0 0 26 26">
  <g id="Group_788" data-name="Group 788" transform="translate(-279 -2118)">
    <g id="Ellipse_83" data-name="Ellipse 83" transform="translate(279 2118)" fill="none" stroke="#b3b3b3" stroke-width="2">
      <circle cx="13" cy="13" r="13" stroke="none"/>
      <circle cx="13" cy="13" r="12" fill="none"/>
    </g>
    <g id="Polygon_2" data-name="Polygon 2" transform="translate(281 2142) rotate(-90)" fill="none">
      <path d="M10.015,5.58a1,1,0,0,1,1.97,0l.544,3.08a1,1,0,0,0,.811.811l3.08.544a1,1,0,0,1,0,1.97l-3.08.544a1,1,0,0,0-.811.811l-.544,3.08a1,1,0,0,1-1.97,0l-.544-3.08a1,1,0,0,0-.811-.811l-3.08-.544a1,1,0,0,1,0-1.97l3.08-.544a1,1,0,0,0,.811-.811Z" stroke="none"/>
      <path d="M 10.99999904632568 5.754219055175781 L 11 5.75422477722168 C 11 5.754226684570312 10.99999904632568 5.754228591918945 10.99999904632568 5.754230499267578 L 10.45642948150635 8.834429740905762 C 10.31090927124023 9.659079551696777 9.659078598022461 10.31091022491455 8.834439277648926 10.45643043518066 L 5.754228591918945 10.99999809265137 C 5.754228591918945 10.99999904632568 5.754228591918945 10.99999904632568 5.754228591918945 11 L 8.834428787231445 11.54356956481934 C 9.659078598022461 11.68908977508545 10.31090927124023 12.34092044830322 10.45642948150635 13.16555976867676 L 10.99999713897705 16.24576950073242 C 10.99999809265137 16.24576950073242 10.99999809265137 16.24576950073242 10.99999904632568 16.24576950073242 L 11.54356861114502 13.16557025909424 C 11.68908882141113 12.34092044830322 12.34091949462891 11.68908977508545 13.16555881500244 11.54356956481934 L 16.24576950073242 11.00000190734863 C 16.24576950073242 11.00000095367432 16.24576950073242 11.00000095367432 16.24576950073242 11 L 13.16556930541992 10.45643043518066 C 12.34091949462891 10.31091022491455 11.68908882141113 9.659079551696777 11.54356861114502 8.834440231323242 L 10.99999904632568 5.754219055175781 M 10.99999904632568 4.75422477722168 C 11.4437894821167 4.75422477722168 11.8875789642334 5.029630661010742 11.98477935791016 5.580440521240234 L 12.52834892272949 8.660650253295898 C 12.60138893127441 9.074549674987793 12.92544937133789 9.39861011505127 13.33934879302979 9.471650123596191 L 16.41955947875977 10.01521968841553 C 17.52117919921875 10.20962047576904 17.52117919921875 11.79037952423096 16.41955947875977 11.98478031158447 L 13.33934879302979 12.52834987640381 C 12.92544937133789 12.60138988494873 12.60138893127441 12.92545032501221 12.52834892272949 13.3393497467041 L 11.98477935791016 16.41955947875977 C 11.8875789642334 16.97036933898926 11.4437894821167 17.24577522277832 10.99999904632568 17.24577522277832 C 10.55620861053467 17.24577522277832 10.11241912841797 16.97036933898926 10.01521873474121 16.41955947875977 L 9.471649169921875 13.3393497467041 C 9.398609161376953 12.92545032501221 9.074548721313477 12.60138988494873 8.660649299621582 12.52834987640381 L 5.580438613891602 11.98478031158447 C 4.478818893432617 11.79037952423096 4.478818893432617 10.20962047576904 5.580438613891602 10.01521968841553 L 8.660649299621582 9.471650123596191 C 9.074548721313477 9.39861011505127 9.398609161376953 9.074549674987793 9.471649169921875 8.660650253295898 L 10.01521873474121 5.580440521240234 C 10.11241912841797 5.029630661010742 10.55620861053467 4.75422477722168 10.99999904632568 4.75422477722168 Z" stroke="none" fill="#b3b3b3"/>
    </g>
  </g>
</svg>
