<svg xmlns="http://www.w3.org/2000/svg" width="141.501" height="31.001" viewBox="0 0 141.501 31.001">
  <path id="Union_7" data-name="Union 7" d="M3292-112v0h-38.679c1.671-.06,9.432-1.084,12.931-14.737,1.657-6.1,5.384-16.361,19.362-16.259h76.272c13.978-.1,17.7,10.162,19.362,16.259,3.5,13.649,11.258,14.675,12.931,14.736H3355v0Zm-39,0h.321c-.069,0-.128,0-.176,0C3253.051-112,3253-112,3253-112Zm141.179,0h.321s-.051,0-.146,0C3394.307-112,3394.248-112,3394.179-112Z" transform="translate(-3253 143)" fill="#f4e1f0"/>
</svg>
