<svg xmlns="http://www.w3.org/2000/svg" width="50.667" height="52.985" viewBox="0 0 50.667 52.985">
  <path id="Intersection_4" data-name="Intersection 4" d="M2159.345,53.3l3.436-3.437-2.484-2.485-2.479-2.479-.817.817V42.527l.02-.02v0l3.276-3.276a1.126,1.126,0,0,1,1.593,0l.538.537,2.161-2.161A23.755,23.755,0,0,1,2174.68,1.862h18.442a23.765,23.765,0,1,1-23.052,41.225l-2.162,2.162.538.538a1.126,1.126,0,0,1,0,1.593l-3.276,3.276-4.191,4.191A10.061,10.061,0,0,1,2159.345,53.3Zm.066-9.994,2.484,2.485,2.479,2.479,1.683-1.683-4.964-4.964Zm2.978-19.534A21.512,21.512,0,1,0,2183.9,2.253,21.538,21.538,0,0,0,2162.389,23.768Zm1.633,17.592,1.147,1.147,1.147,1.147,1.977-1.978a24.121,24.121,0,0,1-2.3-2.294Zm19.865.746a18.356,18.356,0,0,1-8.845-2.271h0a18.347,18.347,0,0,1,8.871-34.4h.008a18.327,18.327,0,0,1,17.319,12.339,1.127,1.127,0,0,1-2.13.733,16.072,16.072,0,0,0-15.188-10.819h-.007a16.1,16.1,0,0,0-11.386,27.462,16.162,16.162,0,0,0,1.931,1.652V31.724a3.4,3.4,0,0,1,3.4-3.4h12.09a3.4,3.4,0,0,1,3.4,3.4V36.78a16.117,16.117,0,0,0,1.92-1.643,15.954,15.954,0,0,0,3.817-6.069,1.127,1.127,0,0,1,2.128.743,18.431,18.431,0,0,1-8.446,10.007h0a18.368,18.368,0,0,1-8.861,2.288Zm-7.176-10.382v6.444a16.217,16.217,0,0,0,14.385-.015V31.724a1.15,1.15,0,0,0-1.147-1.148h-12.09A1.15,1.15,0,0,0,2176.71,31.724Zm-.756-12.741a7.948,7.948,0,1,1,7.948,7.949A7.958,7.958,0,0,1,2175.954,18.983Zm2.254,0a5.694,5.694,0,1,0,5.694-5.7A5.7,5.7,0,0,0,2178.208,18.983Zm21.831,5.554a1.125,1.125,0,1,1,1.065.765A1.135,1.135,0,0,1,2200.039,24.537Z" transform="translate(-2157 -1.862)" fill="#fff"/>
</svg>
