<svg xmlns="http://www.w3.org/2000/svg" width="16.667" height="15" viewBox="0 0 16.667 15">
  <g id="Group_789" data-name="Group 789" transform="translate(-280.667 -14.5)">
    <path id="Path" d="M10.724,2.82A14.6,14.6,0,0,0,8.391,0L0,8.778a7.289,7.289,0,0,0,2.3.389c5.028,0,8.288-5.328,8.424-5.555A.773.773,0,0,0,10.724,2.82Z" transform="translate(286.5 18.667)" fill="#cbc9d9"/>
    <path id="Path-2" data-name="Path" d="M15.632.209a.671.671,0,0,0-.973,0L11.865,3.1a7.537,7.537,0,0,0-3.6-.964C3.393,2.14.238,7.251.106,7.469a.736.736,0,0,0,0,.759,14.011,14.011,0,0,0,3.345,3.6l-1.872,1.94a.731.731,0,0,0-.2.7.7.7,0,0,0,.5.514.673.673,0,0,0,.673-.2L15.632,1.218A.732.732,0,0,0,15.632.209Z" transform="translate(280.667 14.5)" fill="#cbc9d9"/>
  </g>
</svg>
