<svg xmlns="http://www.w3.org/2000/svg" width="24.001" height="23.998" viewBox="0 0 24.001 23.998">
  <path id="regular_paper-plane" data-name="regular paper-plane" d="M20.665.328,1.166,11.573A2.25,2.25,0,0,0,1.434,15.6l5.358,2.217v3.956a2.253,2.253,0,0,0,4.059,1.341l2.053-2.77,5.245,2.166a2.255,2.255,0,0,0,3.084-1.739L24.017,2.62A2.254,2.254,0,0,0,20.665.328ZM9.041,21.772V18.744l1.716.708Zm9.965-1.345L11.8,17.451l6.572-9.482a.751.751,0,0,0-1.111-.994L7.344,15.613,2.291,13.523,21.79,2.273Z" transform="translate(-0.043 -0.025)" fill="#fff"/>
</svg>
