<svg xmlns="http://www.w3.org/2000/svg" width="373.789" height="156.176" viewBox="0 0 373.789 156.176">
  <path id="Intersection_6" data-name="Intersection 6" d="M-874.373,192.118h-2.721l1.632-1.633-.544-2.176,2.176,1.088,1.633-1.632-.544,2.72,2.177,1.089-2.177.544-.543,2.176Zm-337.9-1.633-3.265.545,2.177-2.176-1.088-3.265,2.721,1.633,2.721-2.721-.544,3.809,2.721,1.633-3.264.544-.545,3.265Zm310.7-2.176h-1.633l1.088-1.088-.544-1.633,1.088.544,1.632-1.088-.544,1.632,1.633,1.088-1.633.545-.544,1.633Zm-23.942-10.882-2.177.544,1.633-1.632-1.088-2.177,2.177,1.089,1.633-1.633v2.176l2.176,1.088-2.721.545-.544,2.176Zm-255.2-6.53-4.353.544,3.264-3.265-2.175-4.352,4.352,2.176,3.264-3.264-.544,4.352,4.353,2.721-4.9.544-1.087,4.9Zm299.814,0-.544.544v-1.088l-.544-.544h.544l.544-.544.544.544.544.544-.544.544v.544Zm-87.6-13.059-10.339-7.074,12.516-.544,3.808-11.971,4.353,11.427h12.515l-9.249,7.618,3.809,11.971-10.339-6.529-10.337,7.618Zm-157.8,10.338h-2.721l1.633-1.633-1.088-2.176,2.176,1.088,2.176-1.633-.544,2.721,2.176,1.088-2.176.544-.544,2.176Zm-31.56,1.632-.544.544v-1.088l-.544-.544h1.087v-.544l.544.544h.544l-.544.544v1.088Zm-70.736-5.985h-2.622v-.074l2.078-1.559-1.088-2.721,2.176,1.088,2.176-1.632-.544,2.721,2.176,1.088-2.721.544-.544,2.721Zm157.253-1.632h-3.809l2.721-2.177-1.633-3.264,3.264,1.632,2.177-2.176v3.265l2.721,1.632-3.265.544-.544,3.264Zm38.632-6.53-8.706,1.088,5.985-5.985-3.809-8.162,7.618,3.809,5.986-6.529-.544,8.706,7.617,3.81-8.161,2.176-1.633,8.706Zm-73.458.545-6.528,3.264,2.721-6.53-4.9-4.9,7.074.545,3.264-6.53,1.633,7.073,7.074,1.089-5.985,3.808,1.086,7.074Zm113.18,2.176-2.176.544,1.632-2.177-1.088-2.176,2.176,1.088,2.177-1.633-.544,2.721,2.177,1.088-2.721.544v2.177Zm-206.224,1.633-1.088.544.545-1.088-.545-.544h.545l.544-1.089.544,1.089h.545l-.545.544v1.088Zm279.682-7.074h-7.619l5.441-4.9-2.176-6.529,5.984,3.809,5.987-4.353-1.633,7.074,5.985,3.809-7.618.544-2.176,7.073Zm38.089-.544-2.722.544,1.633-1.633-1.088-2.176,2.178,1.088,2.176-1.632-.544,2.176,2.176,1.088-2.72.544v2.177Zm-274.241,0-1.089,1.088.545-1.633-1.632-.544h1.632l.544-1.633.545,1.633h1.632l-1.087.544v1.633Zm1.088-18.5-15.235,6.529,7.617-14.692L-1173.1,113.22l16.323,2.721,8.163-14.148,2.721,16.324,15.78,3.264L-1144.8,129l1.633,16.323Zm-34.28,7.618h-2.721l2.176-1.632-.544-2.177,1.631,1.633,2.178-1.633-.545,2.177,1.633,1.632h-2.176l-1.09,2.176Zm328.652-3.809-1.088.545.545-.545-1.09-.544h1.09l.543-1.088v1.088h1.088l-.544.544v.545Zm-344.431,0-1.089.545.544-.545-.544-.544h.544l.545-1.088.544,1.088h.544l-.544.544v.545Zm138.752-3.265-.545.545.545-1.088-1.09-.545h1.09l.544-.544v.544h1.089l-1.089.545.545,1.088Zm-162.15-10.338-3.166-.151v-6.71l.99-.757-.99-3.3v-6.066l7.52,5.013,9.25-6.53-3.265,10.883,9.251,7.618h-11.971l-3.81,10.883Zm124.06,3.265-3.264.544,2.177-2.721-1.09-2.721,2.721,1.633,2.721-2.721-.544,3.809,3.266,1.633-3.811.545-.543,3.264Zm216.018-4.353-9.25,5.985,3.265-10.882-8.706-7.074h11.426l3.809-10.338,3.809,10.338,11.427.545-9.251,7.073,2.721,10.883ZM-941.3,129l-.544.544v-1.088l-.544-.544h1.088v-.545l.544.545h1.088l-1.088.544.544,1.088Zm-111.546-9.25-10.882,1.088,7.618-7.618-4.353-10.338,9.795,4.9,8.162-7.618-1.633,11.427,9.795,5.441-10.883,1.633-2.178,10.882Zm54.958,2.72-5.441-3.809,6.529-.544,1.633-6.53,2.72,6.53,6.529-.545-4.9,4.353,2.175,6.529-5.44-3.265L-999.523,129Zm32.1,1.089-1.088.544v-1.088l-1.088-1.088h1.631l.545-1.633.545,1.633h1.633l-1.089,1.088v1.633Zm40.811-3.809h-2.177l1.633-1.089-1.088-1.632,1.633.544,1.633-1.088-.544,1.633,1.633,1.088h-1.633l-.544,2.176Zm-270.431-9.795-1.633,1.088.544-2.176-1.632-1.088h2.175l1.09-2.177.544,2.177h2.177l-1.633,1.088.544,2.176Zm278.048-3.809-1.088.544.544-1.088-.544-.544h.544l.544-.544.544.544h.544l-.544.544v1.088Zm-57.133,0-1.088.544.544-1.088-1.088-.544h1.088l.544-.544v.544h1.088l-.544.544v1.088Zm-113.179-1.088-1.633.545.544-1.089-1.088-1.088h1.633l.544-1.088.545,1.088h1.088l-1.088,1.088.544,1.089Zm-34.824-.544-1.088.544.543-.544-.543-.545h.543l.545-1.088.544,1.088h.545l-.545.545v.544Zm-45.163-5.441h-.544v-.544l-.545-.545h1.088V96.9l.544,1.088h1.089l-1.089.545.545,1.088ZM-946.2,88.19l-12.514,2.72,8.162-9.794-6.53-10.883,11.972,4.353,8.161-9.25-.544,12.515,11.427,4.9-11.971,3.264-1.633,12.515Zm-116.987,7.618-2.72.544,2.176-1.632-1.088-2.177,2.176,1.088L-1061.01,92l-.545,2.176,2.178,1.088-2.178.545-.543,2.176Zm191.534-4.9-3.265.544,2.176-2.176-1.088-3.265,2.721,1.633,2.721-2.721-.544,3.809,2.72,1.633-3.264.544-.544,3.265Zm-134.4,1.633-1.632,1.089.543-2.177-1.632-1.633h2.176l1.089-2.176.544,2.176h2.721l-2.177,1.633.544,2.177Zm-23.942.545-1.088.544.544-1.088-1.087-.544h1.087l.544-1.088.545,1.088h1.088l-1.088.544.544,1.088Zm-106.1-11.426h-7.074l5.441-4.353-2.177-6.53,5.442,3.809,5.441-4.353-1.633,6.53,5.441,3.809-6.529.545-2.177,6.529Zm-44.075,2.176h-3.264l2.176-2.177-1.088-3.264,2.721,1.633,2.721-2.177-.544,3.265,2.721,1.633-3.264.544-.544,3.265Zm82.164-1.633-2.176-1.633h2.176l.544-2.721,1.089,2.177h2.72l-1.632,1.633.544,2.176-2.176-1.088-1.633,1.632Zm113.179-2.176-2.721.544,1.631-2.176-1.087-2.176,2.177,1.088,2.176-1.633L-983.2,78.4l2.177,1.088-2.177.544-.544,2.176Zm78.354,0-1.633,1.088.544-1.633-1.088-.545h1.632l.545-1.632.544,1.632h1.089l-1.089.545.544,1.633ZM-1015.3,78.4l-1.089.545.544-1.088-.544-.544h.544l.545-.545.544.545.544.544-.544.544v.545Zm-37-10.883-9.794-6.53,11.426-.544,3.265-11.427,4.9,10.883h11.426l-8.706,7.074,3.265,10.882-9.795-5.985-8.707,7.074Zm-19.044,7.618-.545.544V74.587l-.544-.545h1.088V72.954l.544,1.088h.544l-.544.545v1.088Zm-66.384-16.869h-2.721l1.633-1.632-.544-2.177,2.176,1.089,1.633-1.633-.544,2.721,2.176,1.088-2.176.544-.544,2.177Zm123.517-6.529-4.9,2.177,2.722-4.9-3.809-3.81,5.441.545,2.721-4.353.544,4.9,5.441,1.088-4.9,2.721.545,5.441Zm-85.972-.544-4.9,2.176,2.177-4.9-3.81-3.809,5.441.544,2.721-4.352,1.088,4.9,4.9,1.088-4.352,2.721.544,5.441Zm118.62,1.088-2.722.544,1.633-1.633-.544-2.176,2.176,1.088,1.632-1.633-.544,2.176,2.176,1.088-2.176.544-.544,2.176Zm-94.135-.544-1.633,1.088.545-1.633-1.088-1.088,1.632.544.545-1.633.544,1.633h1.089l-1.089.544.544,1.633Z" transform="translate(1231.723 -39.551)" fill="#f9bd38" stroke="rgba(0,0,0,0)" stroke-miterlimit="10" stroke-width="1"/>
</svg>
