<svg xmlns="http://www.w3.org/2000/svg" xmlns:xlink="http://www.w3.org/1999/xlink" width="266.5" height="108.542" viewBox="0 0 266.5 108.542">
  <defs>
    <filter id="Union_3" x="201.732" y="45.271" width="64.768" height="63.271" filterUnits="userSpaceOnUse">
      <feOffset dy="3" input="SourceAlpha"/>
      <feGaussianBlur stdDeviation="3" result="blur"/>
      <feFlood flood-opacity="0.161"/>
      <feComposite operator="in" in2="blur"/>
      <feComposite in="SourceGraphic"/>
    </filter>
    <filter id="Union_4" x="0" y="45.271" width="64.768" height="63.271" filterUnits="userSpaceOnUse">
      <feOffset dy="3" input="SourceAlpha"/>
      <feGaussianBlur stdDeviation="3" result="blur-2"/>
      <feFlood flood-opacity="0.161"/>
      <feComposite operator="in" in2="blur-2"/>
      <feComposite in="SourceGraphic"/>
    </filter>
    <filter id="Union_2" x="147.157" y="26.047" width="84.628" height="82.494" filterUnits="userSpaceOnUse">
      <feOffset dy="3" input="SourceAlpha"/>
      <feGaussianBlur stdDeviation="3" result="blur-3"/>
      <feFlood flood-opacity="0.161"/>
      <feComposite operator="in" in2="blur-3"/>
      <feComposite in="SourceGraphic"/>
    </filter>
    <filter id="Union_5" x="34.73" y="26.047" width="84.628" height="82.494" filterUnits="userSpaceOnUse">
      <feOffset dy="3" input="SourceAlpha"/>
      <feGaussianBlur stdDeviation="3" result="blur-4"/>
      <feFlood flood-opacity="0.161"/>
      <feComposite operator="in" in2="blur-4"/>
      <feComposite in="SourceGraphic"/>
    </filter>
    <filter id="Union_1" x="75.216" y="0" width="111.915" height="108.542" filterUnits="userSpaceOnUse">
      <feOffset dy="3" input="SourceAlpha"/>
      <feGaussianBlur stdDeviation="3" result="blur-5"/>
      <feFlood flood-opacity="0.161"/>
      <feComposite operator="in" in2="blur-5"/>
      <feComposite in="SourceGraphic"/>
    </filter>
  </defs>
  <g id="Group_788" data-name="Group 788" transform="translate(-60.25 -583.458)">
    <g transform="matrix(1, 0, 0, 1, 60.25, 583.46)" filter="url(#Union_3)">
      <path id="Union_3-2" data-name="Union 3" d="M7.9,41.962l2.184-12.867L.847,19.987a2.84,2.84,0,0,1,1.547-4.828l12.773-1.874L20.873,1.576A2.771,2.771,0,0,1,23.385,0V38.876L11.958,44.941a2.743,2.743,0,0,1-1.3.329A2.823,2.823,0,0,1,7.9,41.962ZM34.81,44.938,23.385,38.873V0a2.764,2.764,0,0,1,2.509,1.572L31.6,13.281l12.771,1.874a2.84,2.84,0,0,1,1.546,4.829l-9.238,9.108,2.187,12.867a2.825,2.825,0,0,1-2.761,3.309A2.756,2.756,0,0,1,34.81,44.938Z" transform="translate(210.73 51.27)" fill="#7e0736"/>
    </g>
    <g transform="matrix(1, 0, 0, 1, 60.25, 583.46)" filter="url(#Union_4)">
      <path id="Union_4-2" data-name="Union 4" d="M7.9,41.962l2.184-12.867L.847,19.987a2.84,2.84,0,0,1,1.547-4.828l12.773-1.874L20.873,1.576A2.771,2.771,0,0,1,23.385,0V38.876L11.958,44.941a2.743,2.743,0,0,1-1.3.329A2.823,2.823,0,0,1,7.9,41.962ZM34.81,44.938,23.385,38.873V0a2.764,2.764,0,0,1,2.509,1.572L31.6,13.281l12.771,1.874a2.84,2.84,0,0,1,1.546,4.829l-9.238,9.108,2.187,12.867a2.825,2.825,0,0,1-2.761,3.309A2.756,2.756,0,0,1,34.81,44.938Z" transform="translate(9 51.27)" fill="#7e0736"/>
    </g>
    <g transform="matrix(1, 0, 0, 1, 60.25, 583.46)" filter="url(#Union_2)">
      <path id="Union_2-2" data-name="Union 2" d="M11.259,59.78l3.111-18.331L1.207,28.474A4.046,4.046,0,0,1,3.41,21.6l18.2-2.67L29.737,2.245A3.947,3.947,0,0,1,33.315,0V55.384L17.036,64.025a3.909,3.909,0,0,1-1.848.469A4.023,4.023,0,0,1,11.259,59.78Zm38.332,4.24L33.315,55.38V0A3.936,3.936,0,0,1,36.89,2.24L45.02,18.92l18.2,2.67a4.045,4.045,0,0,1,2.2,6.879L52.257,41.444l3.116,18.332a4.025,4.025,0,0,1-3.933,4.713A3.927,3.927,0,0,1,49.591,64.02Z" transform="translate(156.16 32.05)" fill="#f4e1f0"/>
    </g>
    <g transform="matrix(1, 0, 0, 1, 60.25, 583.46)" filter="url(#Union_5)">
      <path id="Union_5-2" data-name="Union 5" d="M11.259,59.78l3.111-18.331L1.207,28.474A4.046,4.046,0,0,1,3.41,21.6l18.2-2.67L29.737,2.245A3.947,3.947,0,0,1,33.315,0V55.384L17.036,64.025a3.909,3.909,0,0,1-1.848.469A4.023,4.023,0,0,1,11.259,59.78Zm38.332,4.24L33.315,55.38V0A3.936,3.936,0,0,1,36.89,2.24L45.02,18.92l18.2,2.67a4.045,4.045,0,0,1,2.2,6.879L52.257,41.444l3.116,18.332a4.025,4.025,0,0,1-3.933,4.713A3.927,3.927,0,0,1,49.591,64.02Z" transform="translate(43.73 32.05)" fill="#f4e1f0"/>
    </g>
    <g transform="matrix(1, 0, 0, 1, 60.25, 583.46)" filter="url(#Union_1)">
      <path id="Union_1-2" data-name="Union 1" d="M15.871,83.923,20.256,58.19,1.7,39.973a5.674,5.674,0,0,1,3.106-9.656l25.65-3.748L41.916,3.152A5.564,5.564,0,0,1,46.96,0V77.752L24.014,89.883a5.537,5.537,0,0,1-2.6.659A5.653,5.653,0,0,1,15.871,83.923ZM69.9,89.875,46.96,77.746V0A5.551,5.551,0,0,1,52,3.145L63.458,26.561,89.1,30.31a5.674,5.674,0,0,1,3.106,9.657L73.659,58.182l4.392,25.735a5.657,5.657,0,0,1-5.542,6.617A5.559,5.559,0,0,1,69.9,89.875Z" transform="translate(84.22 6)" fill="#fff"/>
    </g>
  </g>
</svg>
