<svg xmlns="http://www.w3.org/2000/svg" width="280" height="50.388" viewBox="0 0 280 50.388">
  <g id="Group_788" data-name="Group 788" transform="translate(-47 -104)">
    <g id="svgg" transform="translate(35.112 86.626)">
      <path id="path0" d="M28.7,17.471a2.5,2.5,0,0,1-.785.038c-.056-.034-.192.013-.3.1-.154.127-.214.131-.253.015s-.117-.114-.26-.034a4.434,4.434,0,0,1-1.57.4c-.04-.04-.073,0-.073.088,0,.129-.037.13-.187.005-.116-.1-.187-.106-.187-.023,0,.129-.378.294-.748.326a3.1,3.1,0,0,0-.717.3c-.292.154-.531.236-.532.183s-.043-.04-.094.029a1.808,1.808,0,0,1-1.059.494c-.12-.019-.191.01-.156.065.063.1-.294.308-.47.27-.054-.011-.129.064-.169.167a.347.347,0,0,1-.308.189c-.13,0-.236.059-.236.132s-.056.1-.125.055-.124.013-.124.125-.056.167-.125.124-.125-.017-.125.055a.128.128,0,0,1-.123.132,1.116,1.116,0,0,0-.426.263,1.247,1.247,0,0,1-.406.266c-.058,0-.178.109-.268.236a.53.53,0,0,1-.343.233.166.166,0,0,0-.18.147,6.11,6.11,0,0,1-1,1.123,8.5,8.5,0,0,0-1,1.072c0,.134-.54.591-.655.556-.051-.016-.094.083-.094.22s-.056.25-.124.25a.134.134,0,0,0-.125.141.909.909,0,0,1-.29.41c-.159.147-.27.326-.246.4s-.1.28-.266.463-.282.334-.249.334-.028.168-.133.373a1.92,1.92,0,0,0-.186.44,2.057,2.057,0,0,1-.517.809c-.048,0-.071.1-.052.218a1.539,1.539,0,0,1-.192.671c-.126.249-.193.488-.15.531s.018.078-.054.078a.131.131,0,0,0-.118.156c.025.29-.329,1.216-.466,1.218-.075,0-.052.057.051.124s.141.158.062.216a.336.336,0,0,0-.129.219A5.178,5.178,0,0,1,12.1,33.25a.277.277,0,0,0,0,.295.586.586,0,0,1-.067.495c-.1.2-.122.345-.048.37.145.049.168.644.025.644a3.824,3.824,0,0,0,0,1.216c.067.822.055,1.23-.033,1.259s-.056.159.067.346c.109.167.166.355.127.419a2.869,2.869,0,0,0,.12.942,2.911,2.911,0,0,1,.121.941c-.038.062-.007.114.07.114s.107.052.068.115a2.011,2.011,0,0,0,.191.816,2.192,2.192,0,0,1,.192.882c-.038.1-.019.182.043.182.116,0,.323.487.279.655-.013.051.031.094.1.094s.114.042.1.094a1.388,1.388,0,0,0,.19.5c.119.223.172.406.119.408s-.033.043.046.094a7.1,7.1,0,0,1,.717,1.192,6.254,6.254,0,0,0,.575,1c0-.055.133.1.3.333a1.014,1.014,0,0,1,.234.594c-.034.088-.009.145.055.125.17-.053.911.721.911.952,0,.109.055.2.124.2a3.018,3.018,0,0,1,1.123,1.07c0,.176.5.508.5.338,0-.054.12.043.263.214a.983.983,0,0,0,.358.311,1.3,1.3,0,0,1,.419.346,2.047,2.047,0,0,0,.418.374.1.1,0,0,1,.066.121c-.017.052.052.094.156.094s.187.055.187.121.085.088.187.049.187-.018.187.048.223.219.5.342.471.263.442.31.027.087.126.087a4.077,4.077,0,0,1,1.182.54.716.716,0,0,0,.249.113,3.819,3.819,0,0,1,1.247.505c0,.086.092.109.623.16.138.013.25.054.25.091s.153.076.339.087.36.081.385.156a.107.107,0,0,0,.162.066.746.746,0,0,1,.482.111c.265.132.382.143.425.04s.1-.1.162-.019c.274.332,6.776.349,6.776.018,0-.058.083-.075.183-.037a2.273,2.273,0,0,0,.894-.174,2.373,2.373,0,0,1,.769-.187.941.941,0,0,0,.478-.117c.231-.1.421-.147.421-.112s.088-.023.2-.131a.668.668,0,0,1,.379-.2,2.376,2.376,0,0,0,.677-.251c.352-.18.495-.207.5-.094s.033.109.114-.019.238-.056.715.4a3.039,3.039,0,0,0,.731.583,5.618,5.618,0,0,1,.995.874,5.073,5.073,0,0,0,1.011.873c.2,0,.807-.323.736-.394a2.912,2.912,0,0,1,.624-.731l.682-.673.629.642c.543.555.625.7.6,1.086s.053.529.463.948a1.936,1.936,0,0,1,.462.593.064.064,0,0,0,.063.09c.206,0,.4.21.326.338-.046.075-.028.1.04.059.162-.1,1.072.832.947.97-.053.058-.034.07.043.026.172-.1.583.332.453.475-.052.057-.03.067.048.022.168-.1.458.21.325.343-.051.051-.032.073.042.051s.415.253.758.613a3.377,3.377,0,0,0,.741.655,9.2,9.2,0,0,1,1.956,2.044c-.053.054-.013.079.09.056s.174.025.159.107.082.183.218.226.247.159.247.257.059.179.132.179a3.791,3.791,0,0,1,.824.748,3.512,3.512,0,0,0,.84.748,4.782,4.782,0,0,1,1.389,1.41c-.037.048-.028.058.019.022.112-.085.912.693.912.887s.527.335,1.123.33a1.988,1.988,0,0,0,1.435-.706c.206-.2.29-.314.187-.255-.161.092-.163.078-.017-.1.094-.115.229-.174.3-.129s.094.023.051-.047c-.1-.162.338-.567.476-.442.057.052.069.033.027-.041a4.809,4.809,0,0,1,1.35-1.456c.032.017.063-.01.069-.062.022-.2.272-.4.4-.323.071.044.094.023.051-.047-.093-.15.334-.573.456-.452.046.046.088.032.093-.031a2.685,2.685,0,0,1,.081-.364c.168-.587.052-1.9-.165-1.844-.177.043-1.3-1.114-1.21-1.252.041-.068.019-.088-.052-.044-.142.088-.571-.326-.473-.456.034-.046.025-.055-.022-.019-.119.09-.912-.7-.912-.908,0-.093-.05-.139-.111-.1-.145.089-.414-.236-.294-.356.051-.051.03-.074-.046-.051s-.357-.189-.623-.469a6.964,6.964,0,0,0-.891-.789c-.224-.153-.37-.339-.324-.413s.028-.1-.039-.059a3.515,3.515,0,0,1-1.045-.854,5.267,5.267,0,0,1-.828-.929c.052,0,.023-.079-.065-.175s-.189-.167-.223-.158c-.129.036-.738-.581-.674-.683.036-.058.008-.106-.062-.106a2.013,2.013,0,0,1-.588-.5,1.86,1.86,0,0,0-.61-.5c-.213,0-.578-.438-.467-.561.052-.057.031-.067-.045-.024s-.525-.324-1-.816c-.89-.927-.93-.953-1.693-1.056a1.452,1.452,0,0,1-.9-.537,2.816,2.816,0,0,0-.6-.529c-.1-.034.144-.342.628-.793.693-.647,1.407-2.051.876-1.723-.059.037-.107-.021-.107-.128a.18.18,0,0,0-.159-.195,13.013,13.013,0,0,1-2.271-2.249c.067,0,.024-.061-.1-.131-.27-.157-.275-.29-.022-.543.108-.108.143-.2.078-.2s-.03-.2.079-.436.239-.436.289-.436.07-.112.044-.25.008-.249.076-.249.092-.054.052-.119a1.031,1.031,0,0,1,.117-.575,1.068,1.068,0,0,0,.121-.566c-.038-.061,0-.112.076-.112s.115-.082.076-.18a1.154,1.154,0,0,1,.039-.558c.1-.34,0-1.108-.13-1.045a2.285,2.285,0,0,1-.521-.081c-.271-.061-.468-.058-.468.006s-.063.1-.14.081c-.13-.029-.19.115-.295.717a2.759,2.759,0,0,1-.068.312,1.135,1.135,0,0,0-.047.187c-.012.068-.1.377-.194.685a7,7,0,0,0-.184.686c-.03.294-.222.686-.335.686-.068,0-.092.052-.053.114s-.017.2-.126.312c-.147.147-.156.2-.033.2.1,0,.117.037.04.094a.533.533,0,0,0-.165.278,1.145,1.145,0,0,1-.238.406c-.108.12-.156.218-.108.218s-.009.165-.128.367-.267.337-.328.3-.1.007-.087.1c.045.327-.008.495-.131.418-.069-.043-.125.01-.125.117s-.059.195-.132.195-.1.056-.055.124-.067.257-.242.42a1.038,1.038,0,0,0-.319.43c0,.074-.112.213-.248.308s-.223.2-.192.232A5.828,5.828,0,0,1,42.84,47.6a5.467,5.467,0,0,1-.861.835c.165-.333-.055-.133-.312.281-.149.24-.319.407-.378.37s-.17.049-.245.19-.19.224-.255.183-.119-.013-.119.061-.154.2-.343.285a1.948,1.948,0,0,0-.552.379c-.115.126-.242.225-.282.219a1.2,1.2,0,0,0-.378.19c-.168.11-.364.163-.436.119s-.13-.022-.13.049c0,.177-.543.519-.861.543-.144.011-.261.061-.261.11,0,.1-.5.3-.655.256-.052-.013-.094.026-.094.089s-.1.1-.216.082a.528.528,0,0,0-.391.143.369.369,0,0,1-.345.109c-.094-.036-.172,0-.174.086s-.046.083-.123-.035c-.093-.144-.121-.148-.123-.018,0,.1-.08.14-.181.1s-.2-.013-.22.055-.183.138-.356.156a1.4,1.4,0,0,0-.474.132c-.088.054-.192.065-.233.025s-.149-.012-.24.064a.391.391,0,0,1-.35.067.221.221,0,0,0-.259.05c-.046.073-.153.077-.275.009a.761.761,0,0,0-.567.015,15.306,15.306,0,0,1-4.046-.137c-.2-.106-.276-.106-.313,0-.031.093-.114.106-.227.036a.992.992,0,0,0-.367-.126c-.475-.043-1-.213-1-.324,0-.067-.058-.086-.13-.042a.3.3,0,0,1-.306-.066.3.3,0,0,0-.3-.068.713.713,0,0,1-.489-.109c-.2-.1-.4-.152-.44-.109s-.078.013-.078-.067-.043-.132-.094-.116c-.171.054-.9-.306-.837-.412.035-.057-.052-.082-.195-.054a.664.664,0,0,1-.527-.219,1.024,1.024,0,0,0-.514-.287.808.808,0,0,1-.462-.287.7.7,0,0,0-.416-.269c-.109,0-.2-.06-.2-.132s-.047-.1-.106-.067-.225-.045-.369-.18a.985.985,0,0,0-.365-.245.688.688,0,0,1-.3-.218c-.111-.12-.543-.519-.962-.888s-.724-.727-.68-.8.02-.093-.055-.046c-.164.1-.548-.409-.44-.584.043-.068.021-.089-.047-.047-.134.083-1.12-1.005-1.069-1.179a.076.076,0,0,0-.073-.106c-.058,0-.211-.2-.34-.437s-.288-.436-.352-.436-.082-.034-.04-.077,0-.159-.1-.26-.15-.233-.112-.3.009-.114-.066-.114a3.255,3.255,0,0,1-.685-1.31.784.784,0,0,0-.108-.281c-.054-.086-.062-.156-.019-.156s-.013-.092-.125-.2a.417.417,0,0,1-.137-.374c.036-.094,0-.171-.087-.173s-.083-.046.035-.123c.156-.1.148-.121-.052-.123-.132,0-.207-.035-.165-.076a1.1,1.1,0,0,0-.1-.575,1.252,1.252,0,0,1-.108-.612c.037-.061.013-.112-.055-.112S14,39.821,14,39.7a12.511,12.511,0,0,0-.173-1.278,14.869,14.869,0,0,1-.138-2.681c.023-.892.043-1.734.045-1.871a5.857,5.857,0,0,1,.177-.917,2.332,2.332,0,0,0,.107-.842c-.037-.1-.019-.175.04-.175s.115-.147.126-.328a.683.683,0,0,1,.125-.406.614.614,0,0,0,.149-.326.548.548,0,0,1,.171-.329.219.219,0,0,0,.067-.25,1.239,1.239,0,0,1,.174-.638c.129-.257.2-.468.162-.468-.088,0,.338-.781.483-.888.057-.042.094-.1.082-.124a1.3,1.3,0,0,1,.4-.735c.061,0,.082-.049.045-.109-.091-.146.364-.659.482-.544.052.05.079.007.061-.1-.044-.264.137-.635.27-.553.062.038.112-.04.112-.174a.353.353,0,0,1,.188-.316c.1-.04.177-.116.162-.169a2.99,2.99,0,0,1,1.032-1.063c.063.017.115-.039.116-.125a5.578,5.578,0,0,1,1.244-1.372,6.636,6.636,0,0,1,1.5-1.021c0,.051.1-.027.231-.174s.267-.23.312-.186.081.022.081-.051.21-.222.468-.333.552-.252.655-.315a5.122,5.122,0,0,1,1.652-.689c.12.019.219-.005.219-.052,0-.135.769-.392.911-.305.069.043.088.016.041-.058s.006-.131.136-.123a4.37,4.37,0,0,0,.927-.2,2.316,2.316,0,0,1,.9-.132c.109.042.2.014.2-.062s.085-.138.187-.138.187.059.187.132.066.09.156.031a10.6,10.6,0,0,1,1.848-.163c1.292-.048,1.738-.108,1.884-.254.218-.219.368-.994.192-.994-.064,0-.082-.091-.04-.2.055-.144.023-.18-.112-.128-.1.04-.189.024-.189-.034a13.365,13.365,0,0,0-3.365-.007m8.165,1.122a.137.137,0,0,1-.181.063c-.057-.035-.137.024-.177.131s-.121.165-.177.131-.087.131-.068.369c.034.44.255.846.48.885a6.459,6.459,0,0,1,1.809.916c0,.076.051.106.114.067s.28.025.483.141c.567.326,1.688-.621,1.143-.965-.1-.063-.126-.117-.057-.119s-.058-.12-.281-.263-.406-.314-.406-.379-.056-.085-.124-.043-.125.014-.125-.062-.048-.11-.106-.074-.213-.015-.343-.113a.948.948,0,0,0-.455-.183c-.12,0-.219-.064-.219-.136s-.052-.1-.114-.061-.191,0-.284-.1a.514.514,0,0,0-.384-.137c-.119.017-.216-.019-.216-.082,0-.153-.216-.144-.314.013m-8.245,3.264a.257.257,0,0,1-.277.046,2,2,0,0,0-.79.111,2.293,2.293,0,0,1-.873.112c-.24-.052-.258-.038-.1.082s.124.135-.156.091c-.189-.03-.343,0-.343.073s-.034.094-.077.051-.162.007-.266.112a.391.391,0,0,1-.359.122c-.094-.036-.171-.005-.171.069s-.085.1-.187.062-.187-.026-.187.029a1.567,1.567,0,0,1-.748.412.584.584,0,0,0-.219.129c-.086.071-.156.084-.156.028s-.08.007-.177.141-.215.2-.262.156-.225.065-.394.25-.267.251-.216.147-.063-.034-.254.154-.391.314-.445.281-.189.082-.3.256-.26.281-.326.241-.12-.01-.12.067a4.452,4.452,0,0,1-.779.938c-1.209,1.236-1.466,1.528-1.466,1.664,0,.069-.1.2-.226.288-.291.21-.513.558-.26.41.1-.061.085,0-.043.147a.869.869,0,0,0-.219.4.137.137,0,0,1-.124.146c-.069,0-.125.086-.125.191a.3.3,0,0,1-.174.257.248.248,0,0,0-.11.308c.035.132,0,.241-.076.241s-.13.043-.119.094a1.441,1.441,0,0,1-.144.468,1.336,1.336,0,0,0-.141.481,1.309,1.309,0,0,1-.208.5,1.468,1.468,0,0,0-.213.673c.011.153-.015.278-.058.278s-.085.192-.091.428a1.562,1.562,0,0,1-.114.591,2.751,2.751,0,0,0-.106.871,2.227,2.227,0,0,1-.1.8,2.591,2.591,0,0,0,.036,1.489.289.289,0,0,1,.056.314,3.3,3.3,0,0,0,.074,1.019c.082.432.158.87.168.974a.976.976,0,0,0,.115.343c.056.091.029.154-.068.156-.131,0-.13.022,0,.108a.622.622,0,0,1,.187.435c.01.18.064.328.12.329s.067.056.024.124-.027.125.034.125.113.07.116.156a1.044,1.044,0,0,0,.256.693c.087.094.128.216.093.273a.1.1,0,0,0,.03.146,3.314,3.314,0,0,1,.685,1.415c-.05.055-.027.064.052.019.149-.085.35.243.309.5-.013.082.1.213.241.29s.234.171.2.207.165.3.447.583a2.374,2.374,0,0,1,.473.561c-.073.082.291.5.385.446.051-.031.129.056.174.2s.126.225.183.19.135.02.174.123a.3.3,0,0,0,.258.186.454.454,0,0,1,.32.249c.073.138.191.25.26.25a1.42,1.42,0,0,1,.495.4c.2.221.368.347.369.281s.043-.059.094.018a2.422,2.422,0,0,0,.622.408c.292.147.53.323.53.391s.109.122.242.122a.417.417,0,0,1,.32.127.139.139,0,0,0,.186.06.141.141,0,0,1,.187.063.146.146,0,0,0,.2.057c.064-.04.116-.009.116.067s.052.108.114.069.2.013.3.117a.731.731,0,0,0,.447.188c.142,0,.259.07.26.156q0,.156.123-.031t.123-.031c0,.086.044.15.1.141a.376.376,0,0,1,.156.008,7.746,7.746,0,0,0,1.091.176c.154.01.281.046.281.08,0,.261,4.724.224,5.083-.04.1-.076.156-.062.156.04s.047.117.156.03a2.729,2.729,0,0,1,1.123-.3c.052.013.094-.032.094-.1a.129.129,0,0,1,.132-.125c.073,0,.09.07.038.156-.075.124-.055.124.1,0,.1-.085.228-.117.273-.073s.082.022.082-.052c0-.112.41-.321.935-.478a4.035,4.035,0,0,0,1.248-.572c-.037-.037.159-.168.434-.292s.5-.272.5-.327.094-.067.208-.022c.139.053.178.031.117-.067s-.016-.146.091-.146a.318.318,0,0,0,.26-.205c.043-.112.113-.171.155-.129s.182-.059.312-.224a1.259,1.259,0,0,1,.482-.379c.135-.043.246-.15.246-.236a2.42,2.42,0,0,1,.593-.724,9.537,9.537,0,0,0,.717-.737,10.33,10.33,0,0,1,.971-1.247.278.278,0,0,0,.115-.187c.007-.2.308-.547.4-.456.049.049.056,0,.016-.1a.986.986,0,0,1,.221-.624,1.077,1.077,0,0,0,.238-.6c-.034-.1,0-.135.083-.083s.112.016.065-.106a.2.2,0,0,1,.119-.266.2.2,0,0,0,.123-.253,1.814,1.814,0,0,1,.2-.808,4.836,4.836,0,0,0,.317-.992c.025-.2.1-.659.174-1.021a11.316,11.316,0,0,0,.133-3.589c-.08-.652-.154-1.3-.163-1.435a.535.535,0,0,0-.141-.343c-.079-.059-.063-.133.045-.2.134-.087.136-.121.011-.163-.156-.052-.225-.256-.279-.819-.015-.154-.072-.281-.128-.281s-.066-.056-.023-.125.027-.125-.034-.125-.114-.07-.116-.156a.97.97,0,0,0-.183-.593.506.506,0,0,1-.125-.25,2.843,2.843,0,0,0-.317-.612c-.151-.234-.246-.472-.21-.53s-.005-.1-.089-.1-.118-.034-.076-.077,0-.159-.1-.26-.15-.233-.112-.3-.017-.115-.123-.115c-.178,0-.252-.15-.207-.415.01-.056-.029-.073-.087-.037-.111.068-.6-.666-.554-.826.016-.052-.022-.094-.085-.094a9.192,9.192,0,0,1-1.218-1.091,11.393,11.393,0,0,0-1.445-1.268c-.188-.1-.341-.255-.341-.35s-.06-.137-.133-.092-.227,0-.343-.1a4.223,4.223,0,0,0-1.114-.6,1.863,1.863,0,0,1-.426-.247,1.241,1.241,0,0,0-.53-.236c-.109,0-.2-.06-.2-.132s-.058-.1-.13-.052a.267.267,0,0,1-.281-.043,1.014,1.014,0,0,0-.4-.167.83.83,0,0,1-.415-.23c-.091-.1-.13-.117-.087-.031s.02.156-.052.156a.132.132,0,0,1-.132-.132c0-.073-.046-.1-.1-.068a1.816,1.816,0,0,1-.715-.12,1.988,1.988,0,0,0-.781-.118.394.394,0,0,1-.315-.028,18.935,18.935,0,0,0-3.9-.009m14.919,1.349c0,.068-.086.124-.192.124a.306.306,0,0,0-.262.186.151.151,0,0,1-.215.1c-.079-.047-.067.009.027.124a.467.467,0,0,1,.1.4c-.046.119.046.308.236.483a1,1,0,0,1,.311.424.334.334,0,0,0,.168.235c.231.137,1.127,1.408,1,1.414-.058,0,.083.087.313.186.443.192.539.17.985-.232.346-.311.355-.58.035-.986-.135-.171-.21-.347-.166-.391s.013-.079-.067-.079a.171.171,0,0,1-.145-.187c0-.1-.056-.187-.125-.187s-.124-.078-.124-.174a.3.3,0,0,0-.187-.245.288.288,0,0,1-.188-.231c0-.088-.174-.259-.386-.379a1.033,1.033,0,0,1-.454-.478c-.052-.2-.093-.219-.173-.093s-.106.127-.108.01a.177.177,0,0,0-.189-.156c-.1,0-.187.056-.187.125m-14.094.218a3.463,3.463,0,0,0,1.123.094,3.463,3.463,0,0,0,1.123-.094c0-.051.112-.094.25-.094s.249.06.249.133.1.1.226.061a2.049,2.049,0,0,1,.832.111,1.79,1.79,0,0,0,.709.118c.057-.035.1,0,.1.076s.056.1.124.063a1.553,1.553,0,0,1,.748.237,2.233,2.233,0,0,0,.624.258,5.094,5.094,0,0,1,1.615.914c.08.138.125.154.127.047,0-.137.034-.137.177,0a3.745,3.745,0,0,0,.763.6,1.021,1.021,0,0,1,.293.219c.127.12.549.51.935.867a3.532,3.532,0,0,1,.7.775c0,.07.11.185.245.257.158.085.216.2.165.337s-.031.176.067.116.206.045.3.26a2.834,2.834,0,0,0,.534.822,5.026,5.026,0,0,1,.493.962,4.749,4.749,0,0,0,.222.452c.114.214.173.424.13.468s0,.078.088.078.131.035.088.079,0,.273.1.512a.988.988,0,0,1,.112.546c-.037.061,0,.112.077.112s.115.079.078.175a.27.27,0,0,0,0,.245A15.692,15.692,0,0,1,42.94,38.2c-.132.159-.132.208,0,.269.115.053.12.094.019.143a.258.258,0,0,0-.084.293.473.473,0,0,1-.107.4,1.124,1.124,0,0,0-.206.549c-.022.206-.089.391-.149.413s-.078.12-.04.217a.2.2,0,0,1-.131.254c-.11.043-.168.127-.13.189s0,.112-.094.114c-.119,0-.112.034.024.123.155.1.144.121-.063.124-.156,0-.2.038-.1.1.109.07.106.146-.012.308-.087.119-.183.191-.213.161s-.064.069-.076.22a.873.873,0,0,1-.3.507.816.816,0,0,0-.293.374c-.018.292-.214.579-.4.579a.117.117,0,0,0-.121.171c.037.1-.061.239-.232.331s-.276.194-.25.236c.077.126-.3.561-.4.461a9.767,9.767,0,0,1-.126-1.78,14.806,14.806,0,0,0-.1-1.789.412.412,0,0,1,.014-.3c.043-.112.012-.2-.07-.2s-.109-.058-.066-.129-.037-.327-.18-.569-.2-.406-.135-.363c.254.157.114-.1-.181-.329-.2-.155-.278-.314-.228-.444s.028-.172-.055-.121-.335-.142-.582-.416a1.955,1.955,0,0,0-.575-.5.129.129,0,0,1-.125-.132c0-.073-.056-.1-.125-.055s-.125.019-.125-.05-.225-.188-.5-.262-.5-.192-.5-.262-.054-.094-.119-.053a.96.96,0,0,1-.552-.107c-.237-.1-.464-.147-.5-.108s-1.63.062-3.534.049c-2-.014-3.881.034-4.459.114a13.082,13.082,0,0,1-1.346.132c-.192,0-.314.048-.273.114s-.005.12-.1.12a1.285,1.285,0,0,0-.531.278c-.195.153-.311.209-.259.125s.071-.154.042-.154a7.52,7.52,0,0,0-1.334,1.273.968.968,0,0,1-.25.377.911.911,0,0,0-.249.432.156.156,0,0,1-.145.163c-.08,0-.115.031-.077.069a1.571,1.571,0,0,1-.162.674,6.259,6.259,0,0,0-.189,2.551c.043,2.03.005,2.175-.413,1.587a9.143,9.143,0,0,0-.632-.761,1.466,1.466,0,0,1-.378-.578.132.132,0,0,0-.156-.143.1.1,0,0,1-.125-.125.12.12,0,0,0-.114-.156c-.08,0-.109-.037-.065-.081s-.039-.185-.186-.312-.225-.23-.176-.23-.019-.155-.152-.343a2.123,2.123,0,0,1-.424-1.06c.013-.052-.034-.094-.108-.094s-.1-.056-.055-.125.014-.125-.062-.125-.1-.056-.063-.124.008-.125-.076-.125-.117-.035-.075-.079,0-.273-.1-.512a1.038,1.038,0,0,1-.119-.534c.034-.056-.007-.129-.094-.165-.119-.049-.112-.094.027-.191.158-.11.153-.139-.034-.211-.162-.063-.183-.126-.084-.245s.1-.186,0-.246a.322.322,0,0,1-.112-.291.932.932,0,0,0-.064-.412,11.748,11.748,0,0,1,.313-4.105c.1-.061.091-.107-.029-.155s-.125-.106-.045-.171a.76.76,0,0,0,.159-.415c.019-.171.09-.331.156-.354a.1.1,0,0,0,.052-.156c-.039-.063-.014-.114.055-.114s.1-.112.076-.249a1.33,1.33,0,0,1,.459-1.015c.1-.066.112-.1.022-.106s0-.262.185-.615c.18-.338.37-.587.423-.555s.1-.031.1-.142.055-.168.123-.126.092-.006.049-.117-.012-.193.064-.193a.16.16,0,0,0,.138-.174.3.3,0,0,1,.188-.245c.1-.04.174-.116.156-.169-.033-.1.048-.194.992-1.173a6.513,6.513,0,0,1,1.439-1.225,1.049,1.049,0,0,0,.347-.26c.14-.139.308-.22.374-.18s.12-.022.12-.141.034-.18.077-.138.159,0,.26-.1.233-.15.3-.112.114.025.114-.031a1.68,1.68,0,0,1,.9-.44c.052.016.094-.042.1-.128,0-.1.042-.094.123.031s.121.142.123.023c0-.089.058-.128.126-.086s.125.027.125-.034c0-.153.614-.423.757-.334.064.039.116.023.116-.035s.154-.1.343-.1a.617.617,0,0,0,.426-.109,1.226,1.226,0,0,1,.649-.117c.312,0,.538-.046.5-.1s.051-.1.192-.1.257.043.257.094m174.349,1.087a1.192,1.192,0,0,1-.434.129,2.9,2.9,0,0,0-.859.2,2.178,2.178,0,0,1-.561.1c-.24.019-.455.087-.478.149s-.149.113-.281.113-.239.056-.239.125-.109.125-.242.125a.419.419,0,0,0-.321.126.137.137,0,0,1-.181.063c-.057-.034-.137.024-.177.131s-.126.162-.189.123c-.11-.068-.449.171-1.094.772a1.335,1.335,0,0,1-.379.281,8.006,8.006,0,0,0-1.622,1.853,5.1,5.1,0,0,1-.411.641,9.447,9.447,0,0,0-.746,1.934c0,.1-.056.186-.124.186s-.116.043-.105.094a.646.646,0,0,1-.055.281,4.586,4.586,0,0,0-.149.748c-.041.309-.106.73-.144.935a33.377,33.377,0,0,0,0,4.553c.049.239.12.661.156.935s.084.555.1.623a.487.487,0,0,1,.026.187,1.2,1.2,0,0,0,.2.37,1.239,1.239,0,0,1,.216.581,4.266,4.266,0,0,0,.624,1.419,3.049,3.049,0,0,1,.249.436,1.485,1.485,0,0,0,.343.474.329.329,0,0,1,.156.216,4.994,4.994,0,0,0,.827.9c.454.43.916.88,1.025,1a.69.69,0,0,0,.428.219c.126,0,.2.049.161.111-.061.1.162.21.657.329a1.128,1.128,0,0,1,.383.236,1.091,1.091,0,0,0,.551.223c.183.016.334.065.334.111,0,.441,3.736.647,5.467.3.567-.113.894-.225.894-.307,0-.049.07-.1.156-.1a2.111,2.111,0,0,0,1.082-.4,1.435,1.435,0,0,1,.5-.257.132.132,0,0,0,.137-.124.128.128,0,0,1,.13-.125,1.093,1.093,0,0,0,.437-.33c.168-.182.305-.3.305-.259s.212-.135.471-.387c.449-.438.649-.9.391-.9-.066,0-.152-.081-.189-.18-.452-1.178-2.239-2.2-2.486-1.423a.314.314,0,0,1-.246.23.363.363,0,0,0-.272.157,7.792,7.792,0,0,1-2.158,1.055,6.474,6.474,0,0,1-2.083.006.266.266,0,0,0-.272-.043.147.147,0,0,1-.2-.053.146.146,0,0,0-.2-.058c-.064.04-.116.006-.116-.075s-.1-.119-.249-.081-.25.014-.25-.048a.126.126,0,0,0-.135-.113,5.3,5.3,0,0,1-1.441-1c-.078-.1-.288-.344-.468-.537a1.2,1.2,0,0,1-.325-.537c0-.1-.048-.159-.106-.122s-.173-.157-.254-.43-.212-.495-.289-.495-.106-.035-.062-.079.027-.176-.037-.295a2.592,2.592,0,0,1-.186-.614,7.182,7.182,0,0,0-.244-.9c-.308-.893-.171-5.219.165-5.22.042,0,.09-.183.106-.4s.086-.424.156-.447a.1.1,0,0,0,.067-.143c-.034-.055.022-.169.124-.254a.55.55,0,0,0,.186-.363,2.092,2.092,0,0,1,.655-1.023.826.826,0,0,0,.218-.345c0-.061.126-.2.281-.3a5.021,5.021,0,0,0,.531-.424,5.766,5.766,0,0,1,2.12-.97c1.254-.2,1.563-.218,1.771-.13a2.808,2.808,0,0,0,.594.142,3.642,3.642,0,0,1,.882.3,2.969,2.969,0,0,0,.628.248,1.232,1.232,0,0,1,.441.343c.751.8,1.307.754,1.643-.124a.336.336,0,0,1,.274-.219.188.188,0,0,0,.191-.183.457.457,0,0,1,.253-.318c.139-.075.22-.189.18-.254s.073-.174.252-.242c.539-.205.241-.764-.715-1.344-.189-.114-.343-.246-.343-.294a4.994,4.994,0,0,0-1.247-.671,5.889,5.889,0,0,1-.624-.274,4.536,4.536,0,0,0-.935-.334c-.206-.034-.514-.1-.686-.154a10.462,10.462,0,0,0-2.511-.115m-142.237.846a5.6,5.6,0,0,1-.308.9,5.089,5.089,0,0,0-.308,1.028,1.305,1.305,0,0,1-.2.6.138.138,0,0,0-.044.188c.04.064.009.116-.068.116s-.129.1-.117.219a1.058,1.058,0,0,1-.007.312,1.854,1.854,0,0,0-.048.187.792.792,0,0,1-.1.218,5.657,5.657,0,0,0-.376,1.341.076.076,0,0,1-.082.094c-.058,0-.177.323-.263.717a3.437,3.437,0,0,1-.28.867,2.348,2.348,0,0,0-.25,1c-.009.086-.057.156-.106.156-.106,0-.232.39-.324,1a2.167,2.167,0,0,1-.223.686,2.651,2.651,0,0,0-.25.748,1.974,1.974,0,0,1-.221.655c-.071.085-.088.156-.036.156s.03.076-.047.168a1.067,1.067,0,0,0-.167.5c-.016.182-.072.33-.125.33s-.1.076-.1.168a5.465,5.465,0,0,1-.254.9c-.14.4-.271.793-.29.861-.029.1-.315,1.057-.392,1.31-.01.034-.061.23-.114.436a6.04,6.04,0,0,1-.29.809,6.228,6.228,0,0,0-.433,1.468c-.007.085-.056.156-.108.156a1.69,1.69,0,0,0-.252.717,4.1,4.1,0,0,1-.335,1,.633.633,0,0,0-.115.442.513.513,0,0,1-.111.4c-.3.416-.21.439,1.877.439,2.212,0,2.1.031,2.263-.655A.407.407,0,0,1,59,45.874a2.384,2.384,0,0,0,.082-.4,3.056,3.056,0,0,1,.135-.561c.043-.1.088-.216.1-.25s.081-.206.154-.382a2.928,2.928,0,0,0,.172-.686,1.364,1.364,0,0,1,.152-.522c.063-.085.072-.156.021-.156s-.036-.07.033-.156a1.793,1.793,0,0,0,.2-.655,3.5,3.5,0,0,1,.273-.906l.2-.407,3.5.033,3.5.033.156.53c.086.292.128.531.092.531s-.007.07.064.156A1.242,1.242,0,0,1,68,42.6a1.523,1.523,0,0,0,.12.5,11.4,11.4,0,0,1,.436,1.59.786.786,0,0,0,.052.156,1.2,1.2,0,0,1,.062.187,1.152,1.152,0,0,0,.062.187.77.77,0,0,1,.05.156c.01.051.094.36.188.685l.169.593h4.182l-.123-.53c-.067-.292-.154-.614-.193-.718a.665.665,0,0,1-.051-.281.078.078,0,0,0-.085-.094c-.057,0-.107-.07-.11-.156a5.145,5.145,0,0,0-.4-1.435c-.141-.36-.222-.655-.179-.655s.014-.075-.062-.167-.1-.2-.057-.25.016-.082-.064-.082-.136-.043-.125-.094a4.066,4.066,0,0,0-.238-1.029c-.04-.1-.082-.216-.094-.25s-.057-.147-.1-.249a7.553,7.553,0,0,1-.459-1.528c0-.12-.056-.218-.123-.218s-.088-.085-.049-.189a.4.4,0,0,0-.065-.355c-.076-.091-.1-.2-.055-.248s.022-.082-.049-.082-.176-.21-.23-.468-.107-.5-.118-.53a5.738,5.738,0,0,0-.32-.778,1.533,1.533,0,0,1-.116-.592c0-.207-.065-.376-.145-.376s-.108-.037-.062-.083.007-.2-.087-.343a2.125,2.125,0,0,1-.237-.7,8.932,8.932,0,0,0-.4-1.31,4.579,4.579,0,0,1-.462-1.59c0-.12-.058-.218-.134-.218s-.1-.035-.059-.079,0-.236-.1-.43a1.715,1.715,0,0,1-.183-.642,1.144,1.144,0,0,0-.186-.556,3.309,3.309,0,0,1-.328-.932,2.278,2.278,0,0,0-.236-.729,1.082,1.082,0,0,1-.159-.5,4.338,4.338,0,0,0-.287-.935,2.149,2.149,0,0,1-.2-.588,1.188,1.188,0,0,0-.1-.406l-.12-.316H61.643l-.087.406M76.714,35.8V46.654h3.863l.033-4.209.033-4.209L82.22,38.2l1.577-.034.132.378c.073.207.194.378.27.378s.1.056.061.124-.017.125.055.125a.147.147,0,0,1,.133.156,2.88,2.88,0,0,0,.306.718c.168.308.376.7.465.873a2.511,2.511,0,0,0,.317.477,1.235,1.235,0,0,1,.233.468c.042.167.126.3.187.3a.121.121,0,0,1,.112.127,2.2,2.2,0,0,0,.315.6,2.837,2.837,0,0,1,.365.736,1.246,1.246,0,0,0,.308.519.877.877,0,0,1,.259.495.345.345,0,0,0,.187.308.363.363,0,0,1,.187.325.82.82,0,0,0,.231.485,1.433,1.433,0,0,1,.314.561l.082.33h2.243a18.546,18.546,0,0,0,2.243-.069,9.457,9.457,0,0,0-.882-1.554.967.967,0,0,1-.185-.415.667.667,0,0,0-.251-.415.183.183,0,0,1-.1-.239.2.2,0,0,0-.125-.249.662.662,0,0,1-.272-.438c-.043-.2-.13-.364-.192-.364s-.225-.239-.364-.53c-.471-.989-.84-1.584-.927-1.5-.048.048-.049-.01,0-.127a.2.2,0,0,0-.118-.29c-.11-.042-.168-.126-.13-.188s.016-.112-.048-.112-.15-.172-.193-.382-.129-.349-.193-.31-.158-.055-.207-.21a4.077,4.077,0,0,0-.364-.718c-.439-.7-.5-1-.2-1a.677.677,0,0,0,.413-.161,4.29,4.29,0,0,1,.72-.448,5.879,5.879,0,0,0,1.753-1.646.92.92,0,0,1,.273-.359c.15-.14.233-.254.184-.254s.017-.21.146-.468a9.858,9.858,0,0,0,.129-5.25.786.786,0,0,1-.086-.343c.022-.007-.037-.1-.131-.219s-.132-.207-.085-.207c.144,0-.444-.778-1.013-1.34a2.026,2.026,0,0,0-.732-.531c-.109,0-.169-.044-.136-.1s-.117-.171-.335-.258-.537-.235-.708-.326a2.711,2.711,0,0,0-.709-.229,1.993,1.993,0,0,1-.521-.138c-.3-.188-1.257-.236-5.723-.284l-4.771-.053V35.8m24.654-10.761a.547.547,0,0,0-.083.317,1.244,1.244,0,0,1-.2.54c-.111.169-.153.308-.094.309s.043.043-.037.094a.8.8,0,0,0-.2.466,3.537,3.537,0,0,1-.135.591l-.164.437a3.4,3.4,0,0,0-.131.53,3.405,3.405,0,0,1-.3.8,1.3,1.3,0,0,0-.195.629.5.5,0,0,1-.114.376c-.094.127-.14.279-.1.338s.006.106-.067.106-.132.159-.132.355a2.074,2.074,0,0,1-.2.763,4.591,4.591,0,0,0-.3.8c-.171.722-.186.765-.276.833a1.441,1.441,0,0,0-.168.561,4.786,4.786,0,0,1-.263.93,5.732,5.732,0,0,0-.245.685c-.032.138-.073.306-.089.374a2.4,2.4,0,0,1-.184.406c-.085.154-.123.281-.086.281s-.012.192-.11.427-.145.459-.106.5.016.073-.053.073-.2.323-.284.718a3.428,3.428,0,0,1-.28.867,1.112,1.112,0,0,0-.166.437,2.334,2.334,0,0,1-.279.925c-.08.145-.11.3-.067.343s.016.079-.06.079-.118.1-.094.23a1.735,1.735,0,0,1-.181.732,5.659,5.659,0,0,0-.315.924,1.779,1.779,0,0,1-.216.578c-.069.086-.076.156-.016.158s.04.045-.043.1a.775.775,0,0,0-.182.5c-.017.22-.063.4-.1.4a4.848,4.848,0,0,0-.448,1.4.844.844,0,0,1-.19.413c-.373.23.087.3,1.933.3,2.009,0,2.044,0,2.134-.281.05-.154.106-.323.123-.374.082-.235.093-.287.079-.374-.008-.052.038-.094.1-.094s.113-.1.109-.219a2.251,2.251,0,0,1,.254-1.071,1.746,1.746,0,0,0,.174-.647,2.8,2.8,0,0,1,.182-.748,8.742,8.742,0,0,0,.356-1.153l.23-.906,3.558.033,3.558.033.093.543a2.132,2.132,0,0,0,.21.686,2.029,2.029,0,0,1,.217.641,2.661,2.661,0,0,0,.224.832,2.314,2.314,0,0,1,.126.374,2.677,2.677,0,0,0,.106.352,4.551,4.551,0,0,1,.145.561,6.548,6.548,0,0,0,.2.811.358.358,0,0,1,.01.156c-.008.052.041.094.11.094s.117.042.11.094c-.106.668-.146.655,2.127.655h2.113l-.074-.468a1.086,1.086,0,0,0-.21-.559c-.075-.051-.088-.093-.028-.094s.043-.082-.037-.179a1.207,1.207,0,0,1-.2-.468,3.233,3.233,0,0,0-.311-1.109,1.907,1.907,0,0,1-.18-.538c-.07-.54-.221-.951-.349-.951-.073,0-.1-.034-.056-.076a1.47,1.47,0,0,0-.165-.686c-.132-.335-.2-.61-.155-.61s.018-.067-.064-.15a.813.813,0,0,1-.15-.491.6.6,0,0,0-.109-.41,5.107,5.107,0,0,1-.474-1.5.637.637,0,0,0-.137-.312c-.1-.073-.165-.29-.219-.707a1.811,1.811,0,0,0-.171-.52,4.62,4.62,0,0,1-.272-.889,1.38,1.38,0,0,0-.229-.633c-.052,0-.1-.07-.107-.156a5.342,5.342,0,0,0-.4-1.4,2.326,2.326,0,0,1-.238-.629,6.574,6.574,0,0,0-.68-2.082c-.078-.051-.1-.093-.044-.094s.042-.107-.026-.234a2.645,2.645,0,0,1-.2-.634,2.221,2.221,0,0,0-.243-.672,2.186,2.186,0,0,1-.238-.707c-.091-.6-.219-1-.319-1-.046,0-.1-.163-.111-.362a2.247,2.247,0,0,0-.213-.717,1.625,1.625,0,0,1-.186-.532,2.6,2.6,0,0,0-.212-.655l-.211-.478h-2.263a17.847,17.847,0,0,0-2.346.083M116.315,35.8v10.87l4.614-.063c2.538-.034,4.727-.085,4.864-.114s.544-.094.9-.147a1.768,1.768,0,0,0,.725-.207.654.654,0,0,1,.436-.113c.2,0,.367-.066.367-.146s.034-.111.076-.07.293-.061.559-.228a2.287,2.287,0,0,1,.61-.3.127.127,0,0,0,.127-.125.125.125,0,0,1,.124-.125,4.19,4.19,0,0,0,1.318-1.372,6.036,6.036,0,0,1,.385-.623,1.9,1.9,0,0,0,.222-.677,2.037,2.037,0,0,1,.177-.624A3.034,3.034,0,0,0,132,40.231c-.013-1.059-.03-1.219-.142-1.366a3.483,3.483,0,0,1-.263-.734,1.315,1.315,0,0,0-.331-.668.248.248,0,0,1-.168-.187,2.475,2.475,0,0,0-.555-.641c-.788-.737-.906-.825-.992-.74-.042.042-.076.01-.076-.07s-.14-.146-.312-.146-.311-.056-.311-.124-.043-.113-.094-.1a.734.734,0,0,1-.355-.118,2.249,2.249,0,0,0-.772-.175c-.6-.035-.584-.17.036-.286a3.641,3.641,0,0,0,1.554-.85,2.463,2.463,0,0,1,.5-.545,1.539,1.539,0,0,0,.5-.677.725.725,0,0,1,.2-.429,1.011,1.011,0,0,0,.23-.549,1.42,1.42,0,0,1,.109-.479c.332-.537-.188-3.442-.718-4.009l-.564-.609a1.573,1.573,0,0,0-.483-.406.775.775,0,0,1-.336-.25c-.125-.138-.254-.222-.289-.188s-.137,0-.229-.077-.168-.1-.168-.042-.1.01-.219-.1A1.767,1.767,0,0,0,127,25.4a2.744,2.744,0,0,1-.662-.15c-.285-.176-1.017-.212-5.411-.263l-4.614-.055V35.8m19.435-3.588c.056,7.99.106,9.116.432,9.627a.821.821,0,0,1,.1.227,1.713,1.713,0,0,0,.047.187,2.015,2.015,0,0,1,.052.219,13.344,13.344,0,0,0,.685,1.539,1.413,1.413,0,0,0,.418.534.41.41,0,0,1,.219.3c0,.1.047.183.1.183a2.8,2.8,0,0,1,.641.5c.3.272.575.471.623.442s.179.057.293.191a.7.7,0,0,0,.427.244,1.6,1.6,0,0,1,.566.182,6,6,0,0,0,2.085.409,10.121,10.121,0,0,0,3.453-.226c.159-.061.289-.08.289-.043s.155-.017.344-.12a3.116,3.116,0,0,1,.691-.26c.192-.04.314-.129.273-.2s-.015-.128.058-.136l.253-.031a7.834,7.834,0,0,0,1.563-1.484c0-.061.1-.183.219-.27a.512.512,0,0,0,.219-.311.631.631,0,0,1,.188-.34c.1-.1.156-.239.117-.3s-.018-.115.047-.115.156-.2.2-.45a4.989,4.989,0,0,1,.218-.779,3.373,3.373,0,0,0,.18-.7c.025-.206.084-.6.13-.873s.088-3.838.093-7.92l.009-7.421-1.972-.022-1.972-.022.016,7.693c.008,4.231.005,7.736-.008,7.787s-.035.136-.049.187c-.176.638-.236.78-.331.78-.061,0-.1.042-.091.094.058.272-.516,1.154-.751,1.154a.159.159,0,0,0-.142.172c0,.156-.421.374-.655.34-.052-.007-.094.046-.094.119s-.056.1-.125.055-.125-.014-.125.063-.056.1-.124.062a.3.3,0,0,0-.281.019,3.473,3.473,0,0,1-1.855-.031c-.18-.091-.362-.13-.406-.087s-.078.007-.078-.081-.076-.129-.169-.094a.406.406,0,0,1-.367-.142c-.11-.114-.26-.263-.334-.332a3.638,3.638,0,0,1-1.065-1.933c-.019-.171-.068-.48-.109-.686s-.071-3.7-.07-7.764l0-7.39H135.7l.052,7.265m21.5-7.182c-.046.046-.083,4.929-.083,10.851V46.654h14.219V43.286H161.153V24.952h-1.912a13.069,13.069,0,0,0-2,.083m18.169,7.182c.029,4,.085,7.462.123,7.7s.084.678.1.974a1.223,1.223,0,0,0,.134.6.124.124,0,0,1,.037.171.14.14,0,0,0,.062.187.141.141,0,0,1,.062.187.141.141,0,0,0,.061.186.638.638,0,0,1,.126.445c0,.2.054.367.12.367s.181.227.256.505a1.021,1.021,0,0,0,.317.575c.1.038.18.122.18.187a7.353,7.353,0,0,0,1.724,1.677c.056-.034.2.046.311.18a.751.751,0,0,0,.493.243,1.2,1.2,0,0,1,.573.2,2.016,2.016,0,0,0,.807.249c.285.027.715.08.956.119a9.688,9.688,0,0,0,2.432,0c.275-.049.583-.091.686-.1a3.235,3.235,0,0,0,1.372-.362c0-.064.141-.115.313-.115a.785.785,0,0,0,.522-.243c.114-.134.25-.217.3-.186a6.283,6.283,0,0,0,1.609-1.543.334.334,0,0,1,.17-.236c.2-.12.626-.91.488-.913-.053,0-.023-.049.067-.106a.921.921,0,0,0,.23-.528,1.545,1.545,0,0,1,.195-.58c.07-.086.1-.156.057-.156s.009-.192.107-.427a3.03,3.03,0,0,0,.18-.967c0-.3.013-.679.026-.851s.014-3.553,0-7.515l-.024-7.2h-3.745l0,7.39c0,4.064-.026,7.531-.054,7.7a4.434,4.434,0,0,1-.593,1.746c-.052,0-.094.084-.094.187a1.483,1.483,0,0,1-.406.6,1.553,1.553,0,0,1-.9.573.938.938,0,0,0-.323.2c-.108.1-.233.142-.277.1s-.153-.028-.239.035c-.326.236-2.342.04-2.342-.228,0-.064-.052-.085-.115-.045-.147.091-1.257-.912-1.257-1.136,0-.092-.052-.168-.115-.168-.117,0-.335-.562-.435-1.123a1.088,1.088,0,0,0-.081-.312c-.085,0-.1-1.515-.105-8.138l0-7.39H175.36l.054,7.265m39.669-.124c.031,3.927.087,7.393.124,7.7a7.763,7.763,0,0,0,.44,2.351,1.446,1.446,0,0,1,.135.572c0,.176.055.32.123.32s.157.14.2.311.126.312.186.312.076.08.039.177.043.237.191.317.26.206.26.287a5.767,5.767,0,0,0,1.631,1.521c.055-.034.145.018.2.116a5.1,5.1,0,0,0,2.034.77c.24.029.633.083.873.12a11.238,11.238,0,0,0,3.522-.141c.12-.035.372-.092.561-.126s.363-.114.385-.179.177-.117.344-.117.3-.06.3-.132.057-.1.126-.055.158-.006.2-.109a.188.188,0,0,1,.23-.126c.088.034.256-.087.374-.268s.248-.3.287-.257.2-.109.367-.329a2.293,2.293,0,0,1,.48-.5.374.374,0,0,0,.184-.284c0-.1.043-.18.094-.18a1.734,1.734,0,0,0,.433-.9c-.015-.051.022-.094.082-.094.12,0,.416-.638.382-.822a.49.49,0,0,1,.009-.207c.016-.051.044-.15.061-.218a.631.631,0,0,1,.056-.156,11.507,11.507,0,0,0,.305-2.775c-.017-.275-.036-3.543-.04-7.265l-.009-6.767H226.5l0,7.39c0,6.77-.021,8.08-.111,8.17a.293.293,0,0,0-.049.124.786.786,0,0,1-.1.219,2.547,2.547,0,0,0-.168.591c-.048.257-.137.435-.2.4s-.111.007-.111.1a2.81,2.81,0,0,1-1.237,1.217.572.572,0,0,0-.383.186c-.085.1-.2.158-.257.123a.124.124,0,0,0-.168.045,4.017,4.017,0,0,1-2.122-.147,1.168,1.168,0,0,0-.548-.148,5.368,5.368,0,0,1-1.242-1.257,1.263,1.263,0,0,1-.281-.67.794.794,0,0,0-.094-.427.435.435,0,0,1-.109-.208.332.332,0,0,0-.048-.145c-.092-.091-.11-1.415-.111-8.17l0-7.39h-4.134l.057,7.141m24.446-6.735a1.954,1.954,0,0,0-.073.5c.013.052-.042.094-.121.094s-.113.034-.072.074a1.161,1.161,0,0,1-.114.592,7.26,7.26,0,0,0-.247.831c-.033.172-.109.33-.17.351s-.08.12-.042.219.019.179-.043.179-.121.121-.132.269a.512.512,0,0,1-.165.359c-.106.065-.1.109.025.157s.12.071.018.078c-.084.005-.12.094-.08.2s.011.187-.063.187-.1.077-.068.171a.372.372,0,0,1-.109.346.592.592,0,0,0-.133.453c.023.153-.016.278-.089.278s-.1.05-.062.112a.985.985,0,0,1-.112.545c-.1.239-.146.469-.1.513s.013.078-.067.078-.138.043-.131.094c.044.276-.028.662-.112.609-.054-.033-.11.048-.125.18s-.039.352-.053.49-.074.249-.132.249-.07.056-.028.125.019.124-.051.124-.1.085-.056.187.011.187-.063.187-.1.077-.068.171a.4.4,0,0,1-.128.364c-.144.145-.154.209-.038.256s.12.065,0,.073c-.084.005-.12.094-.08.2s.022.187-.04.187-.119.1-.129.219a3.423,3.423,0,0,1-.417,1.4c-.061,0-.081.076-.045.171a.417.417,0,0,1-.138.374c-.149.15-.159.2-.038.205.1,0,.116.038.04.094a.389.389,0,0,0-.138.248c-.038.477-.061.538-.173.468-.071-.043-.092.007-.049.117s.02.194-.046.194-.105.14-.087.311,0,.312-.053.312-.1.121-.107.269a.551.551,0,0,1-.124.343.484.484,0,0,0-.085.355c.01.154-.031.281-.09.281a.084.084,0,0,0-.093.094c.043.275-.028.662-.113.608-.054-.033-.11.048-.125.18l-.053.489c-.015.137-.074.249-.132.249s-.07.056-.028.125.019.125-.052.125-.1.084-.056.187.011.187-.062.187-.1.076-.069.171a.417.417,0,0,1-.138.374c-.149.15-.159.2-.038.205s.13.024-.007.111a.19.19,0,0,0-.087.248c.047.076.028.138-.042.138s-.093.094-.049.208.028.176-.04.134-.126.02-.135.135c-.041.544-.1.77-.2.77-.058,0-.073.052-.034.116a.145.145,0,0,1-.057.2.144.144,0,0,0-.057.2c.04.064.024.116-.034.116s-.106.112-.106.25c0,.241.083.249,2.471.249h2.471l.122-.323a.687.687,0,0,0,.052-.436c-.039-.063-.013-.114.058-.114s.1-.084.056-.187-.011-.187.062-.187.1-.084.063-.187-.022-.187.039-.187.119-.1.127-.218a5.955,5.955,0,0,1,.165-.967.908.908,0,0,0,.049-.249,3.308,3.308,0,0,1,.5-1.339c.091-.061.076-.093-.043-.094s-.144-.039-.04-.142a.324.324,0,0,0,.073-.314c-.056-.147.46-.169,3.284-.141,2.88.028,3.351.059,3.351.22a.394.394,0,0,0,.124.281c.079.058.055.139-.062.216-.133.088-.141.123-.025.125a.134.134,0,0,1,.136.158,1.674,1.674,0,0,0,.171.595,4.522,4.522,0,0,1,.277.979,5.124,5.124,0,0,0,.2.85.657.657,0,0,1,.047.424c-.039.063-.005.114.075.114s.113.084.073.187-.024.187.035.187.1.07.1.156c-.023.633-.168.6,2.715.587,2.43-.011,2.936-.073,2.555-.308a.144.144,0,0,1-.055-.195c.04-.064.021-.116-.042-.116-.192,0-.544-1.033-.385-1.132.09-.055.094-.1.01-.132a.417.417,0,0,1-.17-.3.609.609,0,0,0-.142-.323.568.568,0,0,1-.12-.343c-.011-.148-.072-.269-.134-.269s-.043-.084.042-.187.1-.187.034-.187c-.15,0-.551-.992-.459-1.14.036-.059.016-.107-.045-.107s-.1-.126-.091-.28a.654.654,0,0,0-.153-.452.366.366,0,0,1-.111-.337.172.172,0,0,0-.086-.223c-.109-.045-.106-.064.01-.071s.115-.076-.026-.292c-.321-.49-.579-1.339-.408-1.341.1,0,.108-.031.017-.094a2.264,2.264,0,0,1-.462-1.2c.042-.043,0-.077-.085-.077-.129,0-.13-.037-.005-.187.091-.109.1-.187.027-.187-.165,0-.424-.736-.318-.906.044-.072.022-.094-.049-.05s-.129-.04-.131-.2a1.079,1.079,0,0,0-.254-.822.376.376,0,0,1-.1-.346c.036-.094.011-.171-.055-.171a.127.127,0,0,1-.121-.132c0-.073.056-.1.125-.055s.125.018.125-.055-.094-.132-.208-.132-.173-.035-.129-.079,0-.273-.1-.512a1.029,1.029,0,0,1-.119-.534c.034-.056-.008-.129-.094-.165s-.1-.067-.018-.073.016-.251-.159-.6a1.649,1.649,0,0,1-.236-.748c.034-.088-.007-.161-.091-.162s-.083-.046.035-.123c.1-.067.129-.122.058-.123-.165,0-.525-.976-.5-1.343.013-.155-.016-.281-.063-.281a2.155,2.155,0,0,1-.424-1.14c.037-.059-.007-.109-.1-.11-.119,0-.112-.034.023-.123s.146-.121.021-.123a.113.113,0,0,1-.115-.156.378.378,0,0,0-.122-.328.369.369,0,0,1-.107-.344c.036-.094.007-.171-.063-.171s-.094-.054-.053-.12a.774.774,0,0,0-.123-.5.771.771,0,0,1-.122-.5c.041-.067.009-.12-.071-.12s-.115-.081-.076-.18a.184.184,0,0,0-.08-.239c-.106-.043-.1-.064.016-.07s.123-.052-.022-.2-.672-.187-3.055-.187h-2.868l-.1.406M254.947,35.8V46.654h4.871l-.034-3.933-.035-3.933,1.279.035a3.373,3.373,0,0,1,1.292.16,1.6,1.6,0,0,0,.249.456c.273.384.3.528.079.414-.085-.044-.015.041.156.191s.227.233.124.189-.078.006.055.114.2.2.141.2.049.2.231.436a1.224,1.224,0,0,1,.3.617.418.418,0,0,0,.189.347.676.676,0,0,1,.254.358,1.7,1.7,0,0,0,.312.553.887.887,0,0,1,.226.584c-.032.123-.013.2.042.162.1-.063.307.293.27.467-.01.051.04.094.113.094s.1.056.055.124-.03.125.028.125.2.168.326.374.186.374.144.374.042.168.189.374.225.374.176.374.017.122.147.271c.159.181.176.24.051.178-.1-.052-.079-.005.055.1.391.317,5.808.295,5.53-.022s-.622-1.028-.505-1.033c.053,0,0-.06-.116-.128a.263.263,0,0,1-.135-.329c.057-.148.032-.176-.089-.1s-.145.047-.085-.111c.046-.117.041-.189-.01-.158s-.193-.079-.316-.243-.169-.3-.1-.3-.04-.18-.241-.4c-.226-.247-.314-.43-.232-.481s.05-.114-.083-.165-.18-.119-.135-.162-.034-.159-.171-.255-.222-.222-.188-.278-.02-.171-.121-.255-.153-.2-.116-.263.009-.111-.064-.111a.156.156,0,0,1-.132-.171.513.513,0,0,0-.186-.326c-.1-.085-.155-.2-.117-.265s.009-.11-.064-.11a.14.14,0,0,1-.132-.147.679.679,0,0,0-.177-.343,1.056,1.056,0,0,1-.219-.381.919.919,0,0,0-.2-.353c-.086-.093-.125-.22-.086-.284s.024-.114-.034-.114c-.166,0-.507-.668-.438-.859.038-.106.007-.14-.079-.086s-.141.005-.141-.108c0-.177.15-.252.415-.206.057.01.07-.036.03-.1-.06-.1.409-.346.522-.28a4.116,4.116,0,0,0,.561-.518,3.748,3.748,0,0,1,.78-.638c.16-.066.193-.123.093-.16s-.049-.173.178-.414a1.507,1.507,0,0,0,.368-.578.637.637,0,0,1,.225-.364c.106-.077.156-.177.111-.222s0-.082.1-.083c.146,0,.144-.023-.01-.123-.118-.077-.131-.122-.035-.123s.12-.087.081-.189-.012-.187.062-.187.1-.079.067-.174a.22.22,0,0,1,.068-.258.152.152,0,0,0,.06-.205.261.261,0,0,1,.05-.272c.085-.1.081-.346-.01-.743a1.875,1.875,0,0,1-.007-1.012,1,1,0,0,0,.033-.593,2.067,2.067,0,0,1-.139-.609,1.116,1.116,0,0,0-.133-.5.629.629,0,0,1-.139-.311c-.094-.471-.358-1.055-.476-1.055-.067,0-.085-.056-.043-.124s.008-.125-.076-.125-.116-.037-.072-.082-.016-.152-.135-.239a.6.6,0,0,1-.227-.262c-.027-.26-.213-.532-.32-.466-.15.093-.5-.192-.41-.336.037-.061-.019-.076-.126-.035s-.194.009-.194-.071-.052-.113-.116-.073-.2-.054-.312-.208-.2-.207-.2-.119-.058.124-.127.082a.157.157,0,0,1-.042-.216c.055-.088.012-.109-.119-.058a.375.375,0,0,1-.364-.082.365.365,0,0,0-.333-.1c-.118.039-.14,0-.068-.115.088-.146.072-.146-.108,0-.137.112-.211.123-.211.031s-.042-.133-.094-.126a.374.374,0,0,1-.156-.008,3.92,3.92,0,0,0-.423-.07,2.6,2.6,0,0,1-.561-.135.955.955,0,0,0-.427-.06.568.568,0,0,1-.379-.1.274.274,0,0,0-.335-.01c-.245.155-.994.151-.994-.005a25.273,25.273,0,0,0-3.991-.125h-3.991V35.8m24.239-10.514a2.7,2.7,0,0,1-.42,1.284c-.048,0-.072.14-.053.311s-.015.312-.076.312-.08.077-.044.171a.368.368,0,0,1-.108.343.38.38,0,0,0-.121.328c.028.085,0,.155-.067.155s-.091.141-.058.312.008.312-.053.312-.122.121-.133.269a.55.55,0,0,1-.124.343.483.483,0,0,0-.085.354c.01.162-.054.281-.152.281a.156.156,0,0,0-.171.132c0,.073.051.1.113.062s.084.043.048.18-.118.25-.183.25-.087.05-.049.112a.985.985,0,0,1-.112.545c-.1.239-.146.469-.1.513s.019.078-.053.078a.14.14,0,0,0-.126.156c.015.385-.042.6-.141.54-.058-.036-.091.073-.073.242s-.005.308-.053.308-.094.1-.1.219a6.18,6.18,0,0,1-.408,1.4.773.773,0,0,0-.109.311.638.638,0,0,1-.125.312.49.49,0,0,0-.078.312.615.615,0,0,1-.187.415c-.1.091-.12.129-.034.086.207-.1.2.123-.01.333a.367.367,0,0,0-.115.321c.028.085,0,.155-.067.155s-.1.14-.083.311-.017.312-.08.312-.1.042-.09.094c.061.24-.181.9-.3.824-.084-.052-.1-.023-.037.075a.191.191,0,0,1-.074.267c-.105.067-.117.109-.028.111s.117.109.079.251-.1.249-.149.249-.093.121-.1.269a.551.551,0,0,1-.124.343.485.485,0,0,0-.085.355c.01.154-.025.281-.076.281s-.091.07-.088.156c.013.375-.041.6-.132.546-.054-.033-.105.034-.115.149a2.028,2.028,0,0,1-.239,1c-.1.073-.126.173-.2.8-.014.12-.07.219-.123.219a.072.072,0,0,0-.075.094c.05.2-.174.9-.266.846-.054-.033-.079.1-.055.305a.727.727,0,0,1-.15.558c-.106.106-.15.193-.1.193s.033.063-.044.14a.34.34,0,0,0-.066.332c.041.106.021.159-.046.118s-.119.036-.119.169c0,.233.094.242,2.494.21l2.494-.034.117-.406c.064-.223.171-.406.238-.406s.052-.084-.034-.187-.106-.187-.046-.187.117-.136.126-.3a2.186,2.186,0,0,1,.209-.686c.134-.269.147-.385.045-.387-.081,0-.045-.081.079-.174s.166-.191.1-.215c-.14-.047.221-1.353.373-1.353.046,0,.065-.168.041-.374l-.043-.374h3.209c3.093,0,3.652.06,3.467.358-.047.076-.02.138.06.138s.116.078.079.172a.322.322,0,0,0,.074.312c.1.1.1.14.006.14-.076,0-.025.219.118.51a2.7,2.7,0,0,1,.265.873c.007.2.058.363.114.364s.07.049.033.11a2.181,2.181,0,0,0,.178.825,2.181,2.181,0,0,1,.178.825c-.037.061,0,.11.079.11.108,0,.106.049-.01.189-.14.169.135.186,2.511.156,2.848-.036,3.088-.1,2.508-.7a.367.367,0,0,1-.1-.343c.036-.094,0-.172-.087-.173s-.083-.046.035-.123c.144-.094.148-.121.018-.123-.1,0-.139-.08-.1-.189s.029-.187-.022-.187-.188-.252-.3-.561c-.15-.406-.167-.562-.058-.564s.094-.037-.022-.111a.189.189,0,0,1-.087-.247c.047-.076.032-.139-.034-.139-.144,0-.4-.7-.3-.8.04-.04,0-.073-.1-.073-.127,0-.135-.036-.028-.142s.094-.188-.043-.326a.4.4,0,0,1-.138-.325.377.377,0,0,0-.126-.314.366.366,0,0,1-.107-.343c.036-.094.008-.171-.063-.171s-.1-.051-.058-.114a1.488,1.488,0,0,0-.18-.7,5.542,5.542,0,0,1-.311-.928,4.767,4.767,0,0,0-.251-.8c-.147-.35-.154-.456-.033-.458s.112-.03-.014-.111a.189.189,0,0,1-.087-.247c.047-.076.028-.139-.043-.139-.108,0-.22-.261-.332-.779a.412.412,0,0,0-.046-.125,1.763,1.763,0,0,1-.078-.319,2.842,2.842,0,0,0-.232-.632,1.422,1.422,0,0,1-.141-.679c.02-.184,0-.335-.054-.335a3.3,3.3,0,0,1-.522-1.435,1.108,1.108,0,0,0-.2-.546.367.367,0,0,1-.1-.335.173.173,0,0,0-.087-.224c-.1-.039-.1-.064-.011-.07s.015-.266-.162-.635a1.575,1.575,0,0,1-.224-.748c.042-.067.021-.123-.046-.123s-.106-.14-.087-.312-.009-.311-.061-.311c-.126,0-.37-.706-.275-.8.04-.04.02-.073-.046-.073s-.126-.1-.136-.219a1.38,1.38,0,0,0-.254-.882.554.554,0,0,1-.156-.281c0-.064.07-.117.156-.118s.109-.037.031-.094a2.271,2.271,0,0,1-.5-1.149c.036-.058-.005-.134-.091-.169-.119-.048-.111-.1.03-.2s.156-.133.01-.135c-.1,0-.141-.037-.1-.079.332-.331-.348-.421-3.176-.421h-2.909l-.019.338M29.73,27.076a3.646,3.646,0,0,0-.78.242c-.14.075-.255.1-.255.061s-.16.039-.357.179-.393.219-.436.174-.079.005-.079.109-.141.252-.312.33-.312.215-.312.3a.675.675,0,0,1-.218.368c-.37.349-.519.568-.44.647.042.041.007.076-.077.076s-.118.056-.076.124.014.125-.062.125-.1.056-.063.125.025.124-.037.124-.1.2-.08.437-.016.436-.08.436c-.149,0-.149.962,0,1.054.063.039.1.266.08.507s0,.436.051.436a1.905,1.905,0,0,1,.367.623,1.663,1.663,0,0,0,.383.623c.055,0,.136.143.18.317s.134.283.2.242.121-.015.121.058.086.132.191.132a.3.3,0,0,1,.261.183.534.534,0,0,0,.309.258c.132.042.213.121.179.176s.035.1.154.093c.366-.01.9.184.9.327,0,.1.043.094.141-.005s.217-.093.437.052c.2.134.295.147.295.044s.121-.122.371-.067a.9.9,0,0,0,.53-.018.789.789,0,0,1,.284-.109,2.028,2.028,0,0,0,.965-.359c.064-.1.093-.091.094.013,0,.082.151.012.334-.157s.355-.283.385-.252c.078.077.78-.742.78-.911a.13.13,0,0,1,.116-.139c.064,0,.153-.113.2-.251s.127-.222.185-.186.089-.034.07-.154a1.269,1.269,0,0,1,.159-.593,3.451,3.451,0,0,0-.022-2.775c-.116-.223-.153-.406-.082-.406s.016-.112-.121-.249a.69.69,0,0,1-.261-.664c.01-.057-.026-.085-.079-.061s-.321-.18-.595-.451-.421-.446-.324-.388c.123.074.147.06.081-.046a.224.224,0,0,0-.26-.089.309.309,0,0,1-.311-.112c-.081-.1-.183-.168-.228-.159a1.522,1.522,0,0,1-.433-.129,1.989,1.989,0,0,0-.468-.145.108.108,0,0,1-.117-.094,3.974,3.974,0,0,0-1.833-.027m34.432,1.555a1.845,1.845,0,0,0,.081.374,1.739,1.739,0,0,1,.05.374,1.973,1.973,0,0,0,.181.655c.083.154.115.281.069.281s-.012.084.073.187.114.187.063.187-.031.075.046.167.109.2.07.236a1,1,0,0,0,.125.531,1.092,1.092,0,0,1,.125.575c-.038.061,0,.112.084.112s.122.031.085.069a1.047,1.047,0,0,0,.046.53,5.447,5.447,0,0,0,.335,1.063,1.913,1.913,0,0,1,.144.507,3.9,3.9,0,0,0,.183.709,6.959,6.959,0,0,1,.239.926,2.384,2.384,0,0,0,.082.4.452.452,0,0,1,.052.125,9.231,9.231,0,0,0,.372.891,21.275,21.275,0,0,1-2.547.04l-2.594-.036-.06-.313a1.354,1.354,0,0,1,.142-.712,2.793,2.793,0,0,0,.243-.837,1.921,1.921,0,0,1,.222-.717c.1-.154.152-.281.117-.281s-.007-.143.059-.318a4.544,4.544,0,0,0,.185-.68,4.074,4.074,0,0,1,.208-.711,2.67,2.67,0,0,0,.168-.68,2.07,2.07,0,0,1,.124-.561c.055-.127.113-.273.127-.325a1.1,1.1,0,0,1,.058-.156,1.2,1.2,0,0,0,.063-.187.5.5,0,0,1,.061-.156,1.935,1.935,0,0,0,.06-.424,2.365,2.365,0,0,1,.131-.623c.055-.127.113-.273.127-.325a.449.449,0,0,1,.052-.125,2.328,2.328,0,0,0,.079-.4c.147-1.03.34-1.183.469-.374m21.312-.4a1.235,1.235,0,0,1,.51.191c.094.078.207.1.252.059s.082-.016.082.064.1.145.227.145c.427,0,1.569,1.3,1.5,1.714a.35.35,0,0,0,.01.156,6.252,6.252,0,0,1-.04,1.871,1.2,1.2,0,0,0-.1.406c.011.051-.042.094-.117.094s-.106.084-.067.187.031.187-.018.187-.2.163-.332.363c-.662.988-1.57,1.246-4.715,1.341l-2.089.063V28.039l2.276.073c1.252.04,2.43.1,2.617.123m39.22.009a2.471,2.471,0,0,1,.531.2c.141.076.257.1.257.055s.084-.012.187.073.187.112.187.06.14.055.311.24.312.293.312.239.1.1.232.335c.431.8.329,2.531-.17,2.9-.068.051-.074.093-.013.094s-.06.156-.271.345c-.646.579-.79.682-.857.616a1,1,0,0,0-.517.125,3.981,3.981,0,0,1-.869.24c-.228.028-.455.058-.5.065s-.775.006-1.616,0l-1.528-.015V28.032l2.027.077c1.114.042,2.149.1,2.3.135m-20.961.211a.723.723,0,0,0,.047.177,1.151,1.151,0,0,1,.062.187,1.2,1.2,0,0,0,.062.187,1.143,1.143,0,0,1,.063.187.527.527,0,0,0,.06.156,1.4,1.4,0,0,1,.056.343,2.84,2.84,0,0,0,.183.686,4.313,4.313,0,0,1,.225.935,1.324,1.324,0,0,0,.194.641.153.153,0,0,1,.046.208.108.108,0,0,0,.043.17c.067.023.158.266.2.54s.089.555.1.624a.817.817,0,0,0,.1.25,2.946,2.946,0,0,1,.178.624c.055.274.106.525.112.56s.108.279.223.543a1.136,1.136,0,0,1,.141.593c-.038.061-.015.112.052.112s.106.141.087.315.014.345.073.382a.533.533,0,0,1,.108.373v.307l-2.526-.034-2.526-.034.044-.374a1.657,1.657,0,0,1,.123-.5.792.792,0,0,0,.1-.218.729.729,0,0,1,.049-.156,1.043,1.043,0,0,0,.058-.156c.014-.052.062-.178.106-.281a3.018,3.018,0,0,0,.135-.561,2.4,2.4,0,0,1,.082-.406.586.586,0,0,0,.057-.156.587.587,0,0,1,.057-.156,1,1,0,0,0,.066-.219,5.356,5.356,0,0,1,.46-1.585c.073-.089.092-.161.041-.161s-.026-.081.056-.18a.634.634,0,0,0,.126-.406,1.063,1.063,0,0,1,.006-.32c.016-.051.044-.15.061-.218a1.152,1.152,0,0,1,.062-.187,1.2,1.2,0,0,0,.063-.187.589.589,0,0,1,.058-.156,2.809,2.809,0,0,0,.083-.468,3.263,3.263,0,0,1,.134-.623c.043-.1.09-.229.1-.281a1.012,1.012,0,0,1,.058-.156,1.2,1.2,0,0,0,.062-.187c.017-.069.045-.167.061-.219a2.4,2.4,0,0,0,.107-.582c.018-.227.189-.179.222.063m-72.206.392a1.388,1.388,0,0,1,.441.281c.05.07.092.091.094.046s.2.117.445.361c.429.429.873,1.251.745,1.38-.034.034,0,.138.078.232.159.192-.093,1.662-.284,1.662-.059,0-.108.084-.108.187s-.056.187-.125.187-.124.083-.124.185-.14.22-.311.263-.275.135-.229.21.006.1-.115.058a.2.2,0,0,0-.26.088c-.26.679-2.435.4-3.037-.387-.174-.229-.4-.417-.49-.417a.18.18,0,0,1-.141-.293c.017-.024-.046-.136-.14-.249s-.129-.207-.079-.207.038-.07-.029-.156a3.911,3.911,0,0,1,.022-1.833c.1-.287,1.316-1.656,1.316-1.476,0,.046.154,0,.343-.1a3.169,3.169,0,0,1,1.99-.027m250.684.171c-.037.1-.007.174.067.174s.1.084.062.187-.014.187.056.187.1.046.064.1a1.814,1.814,0,0,0,.125.717,8.428,8.428,0,0,1,.343,1.83c.005.12.059.219.12.219s.079.084.04.187-.011.187.062.187.1.084.063.187,0,.192.08.2c.11.007.108.028-.009.075s-.12.117-.049.208a3.947,3.947,0,0,1,.456,1.459c-.033.054.01.127.1.162.119.049.111.1-.03.2-.1.073-.124.133-.046.134.133,0,.361.747.335,1.093a.131.131,0,0,0,.112.156c.068,0,.092.084.052.187s-.01.187.064.187.083.064-.019.187-.112.187-.015.187c.077,0,.14.084.14.187,0,.159-.332.187-2.245.187-2.162,0-2.245-.01-2.245-.25,0-.137.055-.249.12-.249s.089-.085.049-.187,0-.187.082-.187c.12,0,.12-.04,0-.187s-.115-.187.079-.189.206-.021.046-.134c-.141-.1-.149-.147-.031-.2.087-.034.131-.1.1-.156a1.743,1.743,0,0,1,.114-.665,1.366,1.366,0,0,0,.1-.644c-.04-.041,0-.074.08-.074s.125-.092.075-.249c-.044-.14-.022-.25.05-.25s.1-.084.058-.187-.007-.187.073-.187.111-.057.067-.126a.751.751,0,0,1,.108-.5c.124-.248.139-.373.046-.373s-.1-.037,0-.14a.32.32,0,0,0,.074-.312c-.036-.094,0-.171.079-.171s.111-.055.07-.123c-.108-.173.2-1.124.361-1.127.075,0,.052-.061-.051-.134-.141-.1-.149-.147-.03-.2.086-.034.125-.114.086-.177a.288.288,0,0,1,.027-.27.8.8,0,0,0,.11-.281c.055-.564.234-1.167.33-1.108a.211.211,0,0,1,.051.248m-19.227-.009c.277.21.5.243.382.058-.043-.069.01-.125.117-.125s.195.051.195.113.121.082.269.043c.183-.047.24-.024.18.073s-.02.117.106.068c.106-.04.193-.009.193.071s.052.114.116.074a.145.145,0,0,1,.2.057.145.145,0,0,0,.2.057c.064-.04.172.075.24.255s.181.292.251.248c.25-.154.573.957.547,1.884-.027.96-.4,1.921-.742,1.921a.326.326,0,0,0-.266.219c-.147.412-.317.561-.431.38-.078-.123-.1-.124-.1-.007,0,.187-.851.561-1.027.453a.183.183,0,0,0-.233.094c-.087.14-.153.143-.358.016a4.737,4.737,0,0,0-1.621-.156h-1.369l-.035-2.928-.036-2.927L261,28.91c.686-.022,1.36-.049,1.5-.062a.84.84,0,0,1,.492.161m-20.261.308a.146.146,0,0,1-.156.127c-.122,0-.123.022,0,.1a.623.623,0,0,1,.187.4.7.7,0,0,0,.131.378.909.909,0,0,1,.125.468c.015.218.076.4.136.4s.043.079-.037.176c-.1.123-.106.2-.013.258a.145.145,0,0,1,.067.19.145.145,0,0,0,.069.191.22.22,0,0,1,.068.258c-.037.1-.007.174.067.174s.1.081.065.179-.017.2.046.219.14.236.171.476a4.164,4.164,0,0,0,.191.79.79.79,0,0,1,.071.457c-.035.057.006.132.093.167.118.049.111.1-.031.2-.106.076-.125.133-.043.134a3.274,3.274,0,0,1,.477,1.437.329.329,0,0,0,.127.218c.079.059.055.14-.062.216-.145.1-.149.123-.018.125.1,0,.139.08.1.189s-.017.187.049.187.12.084.12.187c0,.159-.335.187-2.261.187H240.2l.081-.406c.045-.223.142-.426.217-.452s.076-.088-.034-.165c-.133-.093-.136-.132-.013-.183.086-.034.129-.108.1-.162a3.889,3.889,0,0,1,.466-1.471c.085-.109.07-.156-.049-.158-.1,0-.122-.038-.046-.094a.775.775,0,0,0,.151-.455.785.785,0,0,1,.128-.437.658.658,0,0,0,.092-.424.622.622,0,0,1,.092-.415.123.123,0,0,0,.035-.17.137.137,0,0,1,.055-.183.22.22,0,0,0,.051-.258c-.039-.1-.022-.183.037-.183s.113-.174.12-.387a.7.7,0,0,1,.17-.483c.123-.076.12-.114-.013-.174s-.131-.1-.021-.147a.2.2,0,0,0,.08-.25c-.038-.1-.021-.179.038-.179s.118-.156.131-.347c.048-.7.662-1.53.662-.9m-194.878.992a.235.235,0,0,1-.235.1c-.471-.108-.8.453-.635,1.091a2.007,2.007,0,0,1,.1.713c-.031.052.007.094.088.094s.118.071.085.158a4.412,4.412,0,0,0,.54,2.12c.134.125.243.168.243.1s.166-.129.37-.129c.589,0,.839-1.211.444-2.151a1.981,1.981,0,0,1-.11-.53c-.01-.172-.048-.312-.085-.313s-.074-.1-.083-.218c-.039-.537-.1-.758-.18-.706-.049.031-.172-.062-.272-.205-.117-.168-.213-.212-.267-.123m77.313,6.654a2.235,2.235,0,0,1,.811.172c.132.179.643.424.748.358.167-.1,1.153,1.033,1.215,1.4A7.181,7.181,0,0,1,128,40.849a1.384,1.384,0,0,0-.122.442.771.771,0,0,1-.222.451.483.483,0,0,0-.182.33.323.323,0,0,1-.156.268c-.086.043-.324.188-.53.323a3.191,3.191,0,0,1-1.31.557.911.911,0,0,0-.312.069,3.775,3.775,0,0,1-.935.146c-.171.014-1.111.014-2.089,0l-1.777-.024V36.784l2.027.055c1.114.03,2.358.086,2.762.125m-90.1,1.59c.24.072.534.153.653.18.326.072,1.1.7,1.022.825-.037.061.014.111.115.111.212,0,.828,1.034.893,1.5.024.171.051.34.059.374s.027,1.114.04,2.4c.023,2.288-.019,2.562-.382,2.473a1.829,1.829,0,0,0-.332.254.887.887,0,0,1-.392.238c-.05-.013-.137.051-.193.142-.282.457-.4-.171-.412-2.2a10.749,10.749,0,0,0-.113-2.064c-.055,0-.076-.043-.044-.094.108-.178-.231-.355-.7-.364-.257-.005-.468.04-.468.1s-.088.109-.195.109-.159.056-.117.125,0,.125-.086.126c-.132,0-.131.022,0,.108a25.86,25.86,0,0,1,.016,5.063,2.929,2.929,0,0,0-.748.194,2.459,2.459,0,0,1-.963.164c-.156-.039-.281-.011-.281.061s-.171.1-.436.059c-.24-.039-.436-.021-.436.04a2.392,2.392,0,0,1-1,.109,3.247,3.247,0,0,1-1-.079c0-.145-.614-.2-.672-.059q-.057.137-.179-.036a.28.28,0,0,0-.311-.1,1.948,1.948,0,0,1-.812-.126l-.623-.2-.085-1.507c-.047-.829-.066-1.971-.043-2.537a2.355,2.355,0,0,0-.071-1.029c-.063,0-.078-.037-.032-.082.112-.112-.167-.43-.3-.346-.061.038-.11.022-.11-.034s-.194-.106-.43-.11-.4.037-.369.091-.051.168-.188.253c-.156.1-.207.2-.137.288.266.322-.016,4.316-.3,4.228a.55.55,0,0,1-.3-.19.1.1,0,0,0-.156-.039c-.062.039-.114.015-.114-.053s-.113-.159-.251-.2-.216-.136-.174-.2-.025-.106-.154-.085c-.261.045-.361-4.8-.111-5.324a2.334,2.334,0,0,0,.141-.343.791.791,0,0,1,.051-.156.788.788,0,0,0,.047-.2.6.6,0,0,1,.233-.294.507.507,0,0,0,.219-.3c0-.186,1.126-1.033,1.262-.949.06.037.109.016.109-.047s.126-.106.281-.094a.753.753,0,0,0,.415-.076,20.725,20.725,0,0,1,2.681-.135c1.4-.02,3.221-.049,4.045-.065a9.963,9.963,0,0,1,1.933.1m12.136,7.4c-.043.076-.031.094.028.041.106-.1,1.182.869,1.182,1.059a32.121,32.121,0,0,1-2.919,2.966,9.606,9.606,0,0,0-1.132,1.06,10.041,10.041,0,0,0-.968,1.06c.037,0-.032.112-.155.247s-.281.211-.351.168-.092-.022-.049.049c.1.162-.337.567-.475.442-.057-.052-.067-.03-.022.048.135.238-.254.48-.476.3-.1-.085-.154-.206-.116-.268s0-.1-.085-.079-.229-.106-.32-.278-.165-.264-.166-.205-.17-.073-.375-.293c-.372-.4-.394-.624-.062-.624a.365.365,0,0,0,.273-.156c.147-.229.723-.686.6-.474s.635-.457,1.268-1.11c.23-.236.417-.382.417-.323s.225-.141.5-.444.653-.71.842-.907a1.4,1.4,0,0,0,.343-.477c0-.067.123-.186.272-.267s.284-.2.3-.27c.057-.3.15-.43.254-.366.061.038.112-.033.112-.158a1.258,1.258,0,0,1,.343-.6,1.558,1.558,0,0,0,.328-.435c-.07-.3.14-.362.4-.117.161.151.257.337.213.412m1,4.894.481.447-.6.61a3.01,3.01,0,0,1-.73.611,1.869,1.869,0,0,0-.566.5c-.516.586-.608.6-1.113.176s-.486-.581.143-1.073a13.3,13.3,0,0,0,1.15-1.067c.738-.774.637-.758,1.236-.2M50.9,52.336a1.818,1.818,0,0,1,.4.5c-.017.031.01.06.062.064.2.019.52.406.445.538-.043.076-.033.1.023.046.129-.117.457.146.365.294-.037.061,0,.111.075.111a3.935,3.935,0,0,1,.88.779c.406.429.738.725.738.659s.418.293.929.8a3.515,3.515,0,0,1,.854,1.045c-.042.067-.017.086.054.042s.2,0,.284.106.1.189.045.194.022.06.18.123.254.172.211.242.015.126.128.126a.3.3,0,0,1,.265.218,3.055,3.055,0,0,0,.746.78c1.3,1.062,2.036,1.778,1.956,1.906-.043.07-.023.094.045.052s.34.146.605.418.441.493.391.493.085.173.3.384l.393.384-.345.36c-.19.2-.4.326-.47.283s-.09-.02-.047.049c.1.159-1.59,1.809-1.726,1.687-.055-.049-.065-.03-.024.043.077.135-.4.633-.558.584-.047-.014-.123.091-.168.233-.079.247-.1.24-.5-.147-.23-.223-.385-.468-.342-.543s.031-.093-.027-.04c-.133.12-.808-.517-.808-.763,0-.1-.037-.147-.082-.1-.114.115-.43-.168-.343-.307.038-.063.022-.1-.036-.079a3,3,0,0,1-.789-.659,5.023,5.023,0,0,0-.909-.779c-.131-.049-.189-.147-.136-.23s.035-.111-.036-.068c-.162.1-.82-.584-.694-.722.052-.058.032-.069-.045-.025A6.722,6.722,0,0,1,51.4,59.626c0-.069-.07-.112-.156-.1a.1.1,0,0,1-.123-.128.243.243,0,0,0-.174-.239,2.752,2.752,0,0,1-.64-.558,1.713,1.713,0,0,0-.576-.478,10.625,10.625,0,0,1-2.232-2.3c.054-.058.041-.079-.027-.044s-.223-.041-.343-.167c-.208-.219-.18-.29.094-.234.069.013.083-.017.031-.069-.133-.132.284-.561.454-.465.076.044.1.036.052-.017-.092-.1.183-.441.359-.444a2.689,2.689,0,0,0,.6-.58c.275-.317.682-.76.9-.983a1.736,1.736,0,0,0,.4-.518c0-.126.26-.412.375-.412a2.458,2.458,0,0,1,.505.444" transform="translate(-0.01)" fill="#fcfcfc" fill-rule="evenodd"/>
      <path id="path1" d="M17.517,24.155l-.619.655.655-.619c.608-.575.712-.691.619-.691a8.815,8.815,0,0,0-.655.655m23.141,3.274a2.7,2.7,0,0,0,.486.436c.034,0-.128-.2-.361-.436a2.7,2.7,0,0,0-.486-.436c-.034,0,.128.2.361.436m219.614,3.148a10.2,10.2,0,0,0,1.247,0c.323-.026.027-.046-.659-.046s-.95.022-.588.046M11.888,37.532c0,.48.023.662.05.4a4.721,4.721,0,0,0,0-.873c-.028-.222-.05-.01-.049.471m20.321.778a8.94,8.94,0,0,0,1.185,0c.326-.025.059-.046-.593-.046s-.918.021-.592.046m0,1.747a8.135,8.135,0,0,0,1.123,0c.29-.026.021-.047-.6-.047s-.854.022-.526.048m1.931,0a1.374,1.374,0,0,0,.5,0c.119-.031-.008-.056-.282-.055s-.372.027-.217.057m-7.423.123a1.049,1.049,0,0,0,.437,0c.12-.031.022-.058-.219-.058s-.338.026-.219.058m10.987,4.217c0,.549.022.757.049.464a6.241,6.241,0,0,0,0-1c-.026-.255-.048-.016-.048.534m-10.856.81c0,.377.024.531.052.343a2.765,2.765,0,0,0,0-.685c-.028-.189-.052-.034-.052.343m9.238,1c0,.652.021.918.046.593a8.94,8.94,0,0,0,0-1.185c-.025-.326-.046-.06-.046.592m-14.355-.124c0,.308.025.435.055.281a1.81,1.81,0,0,0,0-.561c-.03-.155-.055-.028-.055.281m1.732.709a4.289,4.289,0,0,0,.073,1.2c.052.032.079-.316.059-.772-.06-1.447-.112-1.616-.132-.433m1.646.1c0,.617.021.886.047.6a8.134,8.134,0,0,0,0-1.123c-.026-.328-.047-.091-.048.526m21.789.241c.281.373.763.84.816.787a2.014,2.014,0,0,0-.475-.537c-.287-.27-.441-.382-.34-.25m-6.554,8.8a3.465,3.465,0,0,0,.549.5,2.174,2.174,0,0,0-.425-.5,3.482,3.482,0,0,0-.549-.5,2.163,2.163,0,0,0,.425.5m15.96.974a8.546,8.546,0,0,0,.656.648c.114,0-.323-.495-.764-.867-.467-.393-.457-.374.109.219m-1.328,1.111c.868.826,1.117,1,.522.366a5.329,5.329,0,0,0-.8-.73c-.132-.073-.007.091.28.364m-6.922.09c.148.167.293.279.323.25.067-.067-.369-.553-.5-.553-.053,0,.025.136.174.3m3.275,5.571c.2.247.391.427.421.4s-.133-.227-.365-.448l-.421-.4.364.448m9.589,3.138-.493.53.53-.492c.493-.459.587-.567.493-.567a5.491,5.491,0,0,0-.53.53" transform="translate(0 -1.542)" fill="#ececec" fill-rule="evenodd"/>
      <path id="path2" d="M17.18,24.864l-.493.53.53-.493c.493-.459.587-.567.493-.567a5.55,5.55,0,0,0-.53.531m173.494,9.011c0,3.979.016,5.625.035,3.657s.019-5.223,0-7.234-.035-.4-.035,3.576m39.662-.374c0,3.773.016,5.335.036,3.47s.019-4.951,0-6.86-.036-.382-.036,3.39m24.573,4.054c0,6,.015,8.458.034,5.457s.019-7.912,0-10.914-.034-.546-.034,5.457m8.047-10.7c0,.055.2.1.437.1a1.022,1.022,0,0,0,.436-.049,1.085,1.085,0,0,0-.436-.1c-.24-.028-.437-.006-.437.049m-242.332.63c-.3.36-.4.514-.207.343.322-.289.89-1,.8-1a6.832,6.832,0,0,0-.593.655m95.715,10.071c0,5.934.015,8.361.034,5.394s.019-7.822,0-10.788-.034-.54-.034,5.394M42.2,29.447c.361.56.362.561.362.426a1.566,1.566,0,0,0-.323-.489l-.322-.374.282.437m162.538.339a2.221,2.221,0,0,0,.623,0c.153-.029,0-.053-.344-.052s-.468.025-.279.054m-124.1,3.558.029,3.523L80.7,33.41l.035-3.457,1.65-.039,1.651-.039-1.715-.027-1.714-.027.029,3.523m40.475-3.431c.429.025,1.13.025,1.559,0s.078-.044-.78-.044-1.208.02-.779.044m141.095.7a.818.818,0,0,0,.368.1c.2.029.339.007.3-.049-.061-.1-.672-.149-.672-.054m-242.642.906c-.119.309.012.352.171.055.076-.143.087-.26.023-.26s-.151.092-.195.205m27.626.685c-.162.131-.267.265-.234.3s.158-.049.278-.182a.445.445,0,0,1,.394-.174c.1.037.175.039.175.005,0-.186-.358-.154-.614.053m44.8.98c0,.377.024.531.052.343a2.772,2.772,0,0,0,0-.686c-.028-.189-.052-.034-.052.343m178.725.311c0,.275.027.372.057.217a1.373,1.373,0,0,0,0-.5c-.031-.119-.055.008-.054.282M12.039,38.926c0,.24.025.338.057.219a1.021,1.021,0,0,0,0-.436c-.031-.12-.057-.022-.057.218m109.329-.281c.569.023,1.468.023,2,0s.062-.042-1.035-.042-1.53.019-.961.042m118.888.812a14.13,14.13,0,0,0,2.276.07c2.3-.025,2.036-.072-.749-.131a6.3,6.3,0,0,0-1.527.061m39.663,0a13.363,13.363,0,0,0,2.214.07c2.228-.025,1.965-.07-.748-.131a5.8,5.8,0,0,0-1.465.061m-199.254.624c-.033.087-.044,2.009-.025,4.272l.035,4.114.029-4.206.029-4.206,1.59-.039,1.59-.039-1.594-.027c-1.186-.02-1.61.013-1.655.129m70.317.592c0,.239.026.338.058.218a1.045,1.045,0,0,0,0-.436c-.031-.12-.058-.022-.058.219m138.493.091a1.115,1.115,0,0,0,.187.471c.084.083.084.015,0-.206-.068-.182-.1-.358-.062-.393s.007-.1-.062-.14-.1.055-.064.268m-29.388-.135a8.937,8.937,0,0,0,2.288.013,5.626,5.626,0,0,0-1.392-.073c-.733.011-1.137.038-.9.06m-112.972.543c0,.24.025.338.057.219a1.021,1.021,0,0,0,0-.436c-.031-.12-.057-.022-.057.218M43.941,42.7c0,.227.025.245.123.094.156-.242.156-.374,0-.374-.068,0-.123.126-.123.281m-22.127.54a14.164,14.164,0,0,0,.035,2.983c.058.4.087-.044.083-1.277,0-1.046-.015-1.9-.025-1.9a.774.774,0,0,0-.094.2m3.454,2.172c0,.377.023.531.052.343a2.765,2.765,0,0,0,0-.685c-.028-.189-.052-.034-.052.343m9.236.935c0,.617.021.886.047.6a8.135,8.135,0,0,0,0-1.123c-.026-.328-.047-.091-.048.526m14.918,1.1a6.944,6.944,0,0,0,.593.585c.113,0-.311-.486-.7-.8s-.382-.3.106.218m-8.8.367-.367.406.406-.367c.378-.341.462-.444.366-.444a3.073,3.073,0,0,0-.4.4m12.382,6.081c.289.3.546.523.569.492s-.213-.278-.526-.549l-.569-.492.526.548m-11.348,1c.336.357.43.4.561.259s.126-.152-.008-.076c-.1.059-.315-.039-.561-.259l-.4-.354.4.43m3.927-.057c.186.2.361.332.389.3s-.126-.191-.34-.357l-.388-.3.339.357M40.524,56.17a9.722,9.722,0,0,0,.858.831c.206.165.011-.073-.433-.531-.9-.929-1.172-1.12-.425-.3m2.788.18c-.375.391-.575.629-.443.53.422-.319,1.3-1.24,1.175-1.24a7.683,7.683,0,0,0-.732.71m1.126-.3a3.106,3.106,0,0,0,.406.4l.406.367-.367-.406c-.341-.378-.445-.462-.445-.366m-14.249.3a3.965,3.965,0,0,0,.81,0c.223-.028.04-.051-.406-.051s-.628.023-.4.051M47.3,57.507a2.272,2.272,0,0,0,.406.457c.078.049-.016-.118-.208-.37-.417-.547-.574-.617-.2-.088m9.732.242a2.793,2.793,0,0,0,.5.572c.275.268.5.454.5.414a3.222,3.222,0,0,0-.5-.572c-.274-.274-.5-.46-.5-.414m-8.05,1.484a7.671,7.671,0,0,0,.661.647c.1,0-.433-.6-.835-.927-.316-.26-.266-.18.174.281m-.743,1.645a5.224,5.224,0,0,0,.677.623,3.569,3.569,0,0,0-.552-.623,5.2,5.2,0,0,0-.677-.624,3.587,3.587,0,0,0,.552.624m10.165.549a9.046,9.046,0,0,0,1.232,1.2A3.224,3.224,0,0,0,59.094,62c-.595-.6-.686-.68-.686-.574m2.113,3.661-.43.468.468-.43a4.222,4.222,0,0,0,.468-.468c0-.1-.106-.005-.506.43m1.56.81-.493.53.53-.492c.493-.459.587-.567.493-.567a5.489,5.489,0,0,0-.53.53m-3.43.941c-.46.488-.6.765-.2.4.293-.269.659-.76.553-.742a3.006,3.006,0,0,0-.354.343m-4.11.071a9.045,9.045,0,0,0,1.228,1.2,3.015,3.015,0,0,0-.542-.623c-.589-.6-.686-.68-.686-.578" transform="translate(-0.038 -1.751)" fill="#f4f4f4" fill-rule="evenodd"/>
      <path id="path3" d="M259.191,39.734c0,6,.015,8.458.034,5.457s.019-7.912,0-10.914-.034-.546-.034,5.457m16.064-4.116c0,.308.024.435.054.281a1.765,1.765,0,0,0,0-.561c-.03-.154-.054-.028-.054.281m9.179,5.9a13.506,13.506,0,0,0,2.208.062l2.111-.034-2.208-.062a10.989,10.989,0,0,0-2.111.034m-38.617.058c.6.023,1.582.023,2.182,0s.109-.041-1.091-.041-1.691.019-1.091.041M43.9,46.719c0,.583.022.822.048.531a7.165,7.165,0,0,0,0-1.06c-.026-.292-.048-.053-.048.53m-14.35.873c0,.377.023.531.052.343a2.694,2.694,0,0,0,0-.685c-.028-.189-.052-.034-.052.343m9.236,1.06c0,.617.021.885.047.6a8.134,8.134,0,0,0,0-1.123c-.025-.328-.047-.091-.048.527m13.676-.522a3.072,3.072,0,0,0,.4.4l.406.367-.367-.406c-.341-.378-.444-.462-.444-.366" transform="translate(-4.445 -3.932)" fill="#e4e4e6" fill-rule="evenodd"/>
      <path id="path4" d="M31.892,54.613c0,.583.021.822.047.531a7.165,7.165,0,0,0,0-1.06c-.026-.292-.047-.053-.047.53" transform="translate(-5.034 -9.207)" fill="#ece4ec" fill-rule="evenodd"/>
    </g>
  </g>
</svg>
