<svg xmlns="http://www.w3.org/2000/svg" width="38.161" height="38.162" viewBox="0 0 38.161 38.162">
  <g id="outline" transform="translate(-16 -15.984)">
    <path id="Path_11757" data-name="Path 11757" d="M51.458,21.074H40.169V19.8A1.274,1.274,0,0,0,38.9,18.53h-.7a3.18,3.18,0,0,0-6.232,0h-.7A1.274,1.274,0,0,0,29.992,19.8v1.272H18.7a2.706,2.706,0,0,0-2.7,2.7V46.992a2.706,2.706,0,0,0,2.7,2.7H29.785l-1.04,3.641a.636.636,0,0,0,.612.811H40.8a.636.636,0,0,0,.612-.811l-1.04-3.641H51.458a2.706,2.706,0,0,0,2.7-2.7V23.777A2.706,2.706,0,0,0,51.458,21.074ZM47.165,40.79a1.908,1.908,0,1,1,1.908-1.908A1.908,1.908,0,0,1,47.165,40.79Zm-1.526.881a3.174,3.174,0,0,0,3.053,0,3.816,3.816,0,0,1,1.648,2.935H43.991a3.833,3.833,0,0,1,1.648-2.935Zm5.974,2.935a5.09,5.09,0,0,0-1.93-3.785,3.18,3.18,0,1,0-5.035,0,5.113,5.113,0,0,0-1.93,3.785H41.441V33.794H52.889V44.607Zm-4.447-15.9A1.908,1.908,0,1,1,49.073,26.8,1.908,1.908,0,0,1,47.165,28.706Zm-1.526.881a3.174,3.174,0,0,0,3.052,0,3.817,3.817,0,0,1,1.649,2.935H43.991A3.829,3.829,0,0,1,45.639,29.587Zm7.251-5.81v8.745H51.612a5.091,5.091,0,0,0-1.93-3.785,3.18,3.18,0,1,0-5.035,0,5.107,5.107,0,0,0-1.93,3.784H41.441V22.346H51.458A1.433,1.433,0,0,1,52.889,23.777ZM38.9,21.074H37.623A3.167,3.167,0,0,0,38.2,19.8h.7Zm-3.816-3.816a1.908,1.908,0,1,1-1.908,1.908A1.908,1.908,0,0,1,35.081,17.258ZM31.264,19.8h.7a3.167,3.167,0,0,0,.574,1.272H31.264ZM18.7,22.346H40.169V44.607H35.081v-.744a7.218,7.218,0,0,0-2.448-5.4,4.452,4.452,0,1,0-7.825,0,7.219,7.219,0,0,0-2.448,5.4v.744H17.272V23.777A1.433,1.433,0,0,1,18.7,22.346ZM28.72,39.518a3.18,3.18,0,1,1,3.18-3.18A3.18,3.18,0,0,1,28.72,39.518Zm-3.148-.035a4.445,4.445,0,0,0,6.3,0,5.941,5.941,0,0,1,1.941,4.379v.744H23.632v-.744A5.941,5.941,0,0,1,25.573,39.484ZM39.962,52.875H30.2l.909-3.18h1.509a2.544,2.544,0,0,0,4.927,0h1.509Zm-5.981-3.18h2.2a1.269,1.269,0,0,1-2.2,0Zm18.908-2.7a1.433,1.433,0,0,1-1.431,1.431H18.7a1.433,1.433,0,0,1-1.431-1.431V45.879H52.889Z" transform="translate(0 0)" fill="#7e0736"/>
    <circle id="Ellipse_99" data-name="Ellipse 99" cx="0.636" cy="0.636" r="0.636" transform="translate(34.445 18.53)" fill="#7e0736"/>
    <circle id="Ellipse_100" data-name="Ellipse 100" cx="0.636" cy="0.636" r="0.636" transform="translate(29.992 26.162)" fill="#7e0736"/>
    <circle id="Ellipse_101" data-name="Ellipse 101" cx="0.636" cy="0.636" r="0.636" transform="translate(32.537 26.162)" fill="#7e0736"/>
    <circle id="Ellipse_102" data-name="Ellipse 102" cx="0.636" cy="0.636" r="0.636" transform="translate(35.081 26.162)" fill="#7e0736"/>
    <path id="Path_11758" data-name="Path 11758" d="M160.245,118.862a.636.636,0,0,0,.546.116l2.468-.617h5.01a3.18,3.18,0,0,0,0-6.36H163.18a3.184,3.184,0,0,0-3.18,3.18v3.18a.636.636,0,0,0,.245.5Zm1.027-3.681a1.91,1.91,0,0,1,1.908-1.908h5.088a1.908,1.908,0,1,1,0,3.816H163.18a.634.634,0,0,0-.154.019l-1.754.438Z" transform="translate(-132.552 -88.382)" fill="#7e0736"/>
    <path id="Path_11759" data-name="Path 11759" d="M48.636,125.088h3.816a.636.636,0,0,0,.636-.636v-.243l1.624.812a.636.636,0,0,0,.92-.569v-3.816a.636.636,0,0,0-.92-.569l-1.624.812v-.243a.636.636,0,0,0-.636-.636H48.636a.636.636,0,0,0-.636.636v3.816A.636.636,0,0,0,48.636,125.088Zm5.724-3.423v1.758l-1.272-.636V122.3Zm-5.088-.393h2.544v2.544H49.272Z" transform="translate(-29.456 -95.746)" fill="#7e0736"/>
    <path id="Path_11760" data-name="Path 11760" d="M49.908,203.816A1.908,1.908,0,1,0,48,201.908,1.908,1.908,0,0,0,49.908,203.816Zm0-2.544a.636.636,0,1,1-.636.636A.636.636,0,0,1,49.908,201.272Z" transform="translate(-29.456 -169.386)" fill="#7e0736"/>
    <path id="Path_11761" data-name="Path 11761" d="M49.908,267.816A1.908,1.908,0,1,0,48,265.908,1.908,1.908,0,0,0,49.908,267.816Zm0-2.544a.636.636,0,1,1-.636.636A.636.636,0,0,1,49.908,265.272Z" transform="translate(-29.456 -228.298)" fill="#7e0736"/>
  </g>
</svg>
